<?xml version="1.0" encoding="UTF-8" standalone="no"?>
<svg
   xmlns:dc="http://purl.org/dc/elements/1.1/"
   xmlns:cc="http://creativecommons.org/ns#"
   xmlns:rdf="http://www.w3.org/1999/02/22-rdf-syntax-ns#"
   xmlns:svg="http://www.w3.org/2000/svg"
   xmlns="http://www.w3.org/2000/svg"
   viewBox="0 0 678.78265 280.41467"
   height="280.41467"
   width="678.78265"
   xml:space="preserve"
   id="svg2"
   version="1.1"><metadata
     id="metadata8"><rdf:RDF><cc:Work
         rdf:about=""><dc:format>image/svg+xml</dc:format><dc:type
           rdf:resource="http://purl.org/dc/dcmitype/StillImage" /></cc:Work></rdf:RDF></metadata><defs
     id="defs6"><clipPath
       id="clipPath66"
       clipPathUnits="userSpaceOnUse"><path
         id="path64"
         d="M 0,210.311 H 509.087 V 0 H 0 Z" /></clipPath><clipPath
       id="clipPath350"
       clipPathUnits="userSpaceOnUse"><path
         id="path348"
         d="m 101.909,165.222 h 84.259 v -16.709 h -84.259 z" /></clipPath><clipPath
       id="clipPath354"
       clipPathUnits="userSpaceOnUse"><path
         id="path352"
         d="m 185.668,165.222 h 0.5 v -0.25 h -0.5 z" /></clipPath><clipPath
       id="clipPath358"
       clipPathUnits="userSpaceOnUse"><path
         id="path356"
         d="m 102.911,165.222 h 81.754 v -0.25 h -81.754 z" /></clipPath><clipPath
       id="clipPath362"
       clipPathUnits="userSpaceOnUse"><path
         id="path360"
         d="m 101.909,165.222 h 0.5 v -0.25 h -0.5 z" /></clipPath><clipPath
       id="clipPath366"
       clipPathUnits="userSpaceOnUse"><path
         id="path364"
         d="m 118.162,148.763 h 0.5 v -0.25 h -0.5 z" /></clipPath><clipPath
       id="clipPath370"
       clipPathUnits="userSpaceOnUse"><path
         id="path368"
         d="m 102.935,148.763 h 14.177 v -0.25 h -14.177 z" /></clipPath><clipPath
       id="clipPath374"
       clipPathUnits="userSpaceOnUse"><path
         id="path372"
         d="m 101.909,148.763 h 0.5 v -0.25 h -0.5 z" /></clipPath></defs><g
     transform="matrix(1.3333333,0,0,-1.3333333,0,280.41467)"
     id="g10"><g
       transform="translate(141.9867,111.4002)"
       id="g12"><path
         id="path14"
         style="fill:#ffffff;fill-opacity:1;fill-rule:nonzero;stroke:none"
         d="M 0,0 H 162.355 Z" /></g><g
       transform="translate(297.2809,111.4001)"
       id="g16"><path
         id="path18"
         style="fill:none;stroke:#231f20;stroke-width:1;stroke-linecap:butt;stroke-linejoin:miter;stroke-miterlimit:10;stroke-dasharray:none;stroke-opacity:1"
         d="M 0,0 H -155.294" /></g><g
       transform="translate(304.3415,111.4001)"
       id="g20"><path
         id="path22"
         style="fill:#231f20;fill-opacity:1;fill-rule:nonzero;stroke:none"
         d="M 0,0 -9.949,4.065 -7.588,0 -9.949,-4.064 Z" /></g><path
       id="path24"
       style="fill:#d6f1f2;fill-opacity:1;fill-rule:nonzero;stroke:none"
       d="M 165.093,35.052 H 32.527 v 132.787 h 132.566 z" /><path
       id="path26"
       style="fill:#71d0d5;fill-opacity:1;fill-rule:nonzero;stroke:none"
       d="M 32.528,16.856 H 14.332 v 18.196 h 18.196 z" /><g
       transform="translate(14.3316,10.0881)"
       id="g28"><path
         id="path30"
         style="fill:#ffffff;fill-opacity:1;fill-rule:nonzero;stroke:none"
         d="M 0,0 V 190.906 Z" /></g><g
       transform="translate(14.3317,193.9336)"
       id="g32"><path
         id="path34"
         style="fill:none;stroke:#656263;stroke-width:1;stroke-linecap:butt;stroke-linejoin:miter;stroke-miterlimit:10;stroke-dasharray:none;stroke-opacity:1"
         d="M 0,0 V -183.846" /></g><g
       transform="translate(14.3317,200.9942)"
       id="g36"><path
         id="path38"
         style="fill:#656263;fill-opacity:1;fill-rule:nonzero;stroke:none"
         d="M 0,0 -4.065,-9.949 0,-7.588 4.064,-9.949 Z" /></g><g
       transform="translate(7.6977,16.8561)"
       id="g40"><path
         id="path42"
         style="fill:#ffffff;fill-opacity:1;fill-rule:nonzero;stroke:none"
         d="M 0,0 H 199.19 Z" /></g><g
       transform="translate(199.8272,16.8563)"
       id="g44"><path
         id="path46"
         style="fill:none;stroke:#656263;stroke-width:1;stroke-linecap:butt;stroke-linejoin:miter;stroke-miterlimit:10;stroke-dasharray:none;stroke-opacity:1"
         d="M 0,0 H -192.13" /></g><g
       transform="translate(206.8877,16.8563)"
       id="g48"><path
         id="path50"
         style="fill:#656263;fill-opacity:1;fill-rule:nonzero;stroke:none"
         d="M 0,0 -9.949,4.065 -7.588,0 -9.949,-4.064 Z" /></g><g
       transform="translate(54.6435,12.9369)"
       id="g52"><path
         id="path54"
         style="fill:none;stroke:#231f20;stroke-width:0.5;stroke-linecap:butt;stroke-linejoin:miter;stroke-miterlimit:10;stroke-dasharray:3, 2;stroke-dashoffset:0;stroke-opacity:1"
         d="M 0,0 -43.034,43.034" /></g><g
       transform="translate(10.7778,189.8636)"
       id="g56"><path
         id="path58"
         style="fill:none;stroke:#6f379e;stroke-width:0.5;stroke-linecap:butt;stroke-linejoin:miter;stroke-miterlimit:10;stroke-dasharray:3, 2;stroke-dashoffset:0;stroke-opacity:1"
         d="M 0,0 177.759,-177.759" /></g><g
       id="g60"><g
         clip-path="url(#clipPath66)"
         id="g62"><g
           transform="translate(10.861,184.9715)"
           id="g68"><path
             id="path70"
             style="fill:#050606;fill-opacity:1;fill-rule:nonzero;stroke:none"
             d="m 0,0 c 0,0.167 -0.13,0.167 -0.167,0.167 -0.075,0 -0.093,-0.018 -0.317,-0.297 -0.111,-0.13 -0.874,-1.097 -0.892,-1.116 -0.614,1.209 -1.841,1.413 -2.622,1.413 -2.362,0 -4.501,-2.157 -4.501,-4.258 0,-1.395 0.837,-2.214 1.748,-2.53 0.205,-0.074 1.302,-0.372 1.86,-0.502 0.948,-0.26 1.19,-0.335 1.581,-0.744 0.074,-0.093 0.446,-0.521 0.446,-1.395 0,-1.729 -1.599,-3.515 -3.459,-3.515 -1.525,0 -3.218,0.651 -3.218,2.734 0,0.354 0.075,0.8 0.131,0.986 0,0.056 0.018,0.149 0.018,0.186 0,0.074 -0.037,0.167 -0.186,0.167 -0.167,0 -0.186,-0.037 -0.26,-0.353 l -0.949,-3.813 c 0,-0.018 -0.074,-0.26 -0.074,-0.278 0,-0.168 0.149,-0.168 0.186,-0.168 0.074,0 0.093,0.019 0.316,0.298 l 0.856,1.116 c 0.446,-0.67 1.413,-1.414 3.143,-1.414 2.399,0 4.593,2.325 4.593,4.65 0,0.781 -0.186,1.469 -0.892,2.157 -0.391,0.39 -0.726,0.483 -2.437,0.93 -1.246,0.334 -1.413,0.39 -1.748,0.688 -0.316,0.316 -0.558,0.762 -0.558,1.395 0,1.562 1.581,3.161 3.348,3.161 1.822,0 2.678,-1.116 2.678,-2.882 0,-0.484 -0.093,-0.986 -0.093,-1.06 0,-0.168 0.149,-0.168 0.204,-0.168 0.168,0 0.186,0.056 0.261,0.354 z" /></g><g
           transform="translate(213.282,12.6547)"
           id="g72"><path
             id="path74"
             style="fill:#050606;fill-opacity:1;fill-rule:nonzero;stroke:none"
             d="m 0,0 c 0,0.159 -0.124,0.159 -0.159,0.159 -0.035,0 -0.106,0 -0.248,-0.177 l -1.219,-1.484 c -0.619,1.06 -1.591,1.661 -2.916,1.661 -3.818,0 -7.777,-3.871 -7.777,-8.024 0,-2.952 2.068,-4.79 4.648,-4.79 1.414,0 2.652,0.601 3.677,1.467 1.537,1.29 1.997,3.005 1.997,3.146 0,0.159 -0.142,0.159 -0.195,0.159 -0.159,0 -0.176,-0.106 -0.212,-0.176 -0.813,-2.758 -3.199,-4.083 -4.966,-4.083 -1.874,0 -3.5,1.202 -3.5,3.711 0,0.566 0.177,3.641 2.174,5.957 0.972,1.131 2.634,2.121 4.313,2.121 1.944,0 2.81,-1.609 2.81,-3.412 0,-0.459 -0.053,-0.848 -0.053,-0.919 0,-0.159 0.177,-0.159 0.23,-0.159 0.194,0 0.212,0.018 0.283,0.336 z" /></g><g
           transform="translate(67.2117,25.6971)"
           id="g76"><path
             id="path78"
             style="fill:#050606;fill-opacity:1;fill-rule:nonzero;stroke:none"
             d="m 0,0 c -0.281,-0.948 -0.552,-1.427 -0.656,-1.593 -0.406,-0.708 -0.625,-0.729 -0.979,-0.729 -0.177,0 -0.916,0.031 -1.531,0.448 -0.468,-0.021 -0.833,-0.386 -0.833,-0.5 0,-0.094 0.709,-0.521 1.677,-0.521 0.75,0 1.978,0.396 2.759,2.093 0.271,0.583 0.448,1.177 0.479,1.302 0.209,0.718 0.427,1.551 0.427,1.593 0,0.062 -0.021,0.094 -0.114,0.094 C 1.135,2.187 0.958,2.135 0.739,1.989 0.5,1.833 0.489,1.781 0.417,1.52 0.312,1.166 -0.302,-0.375 -1.593,-0.375 c -1.01,0 -1.604,0.823 -1.604,1.999 0,0.802 0.323,1.875 0.927,2.604 0.281,0.333 0.791,0.885 1.968,0.885 0.198,0 0.5,-0.031 0.76,-0.115 C 0.573,4.967 0.833,4.884 0.833,4.55 0.833,4.196 0.292,3.53 0.25,3.467 0.208,3.426 0.177,3.384 0.177,3.343 0.177,3.27 0.229,3.27 0.292,3.27 c 0.302,0 0.645,0.281 0.926,0.666 0.084,0.115 0.5,0.698 0.5,1.052 0,0.427 -0.323,0.531 -0.448,0.573 -0.385,0.124 -0.739,0.124 -0.885,0.124 -2.353,0 -4.467,-2.061 -4.467,-4.508 0,-1.052 0.469,-2.125 1.812,-2.125 0.781,0 1.583,0.396 2.27,0.948" /></g><g
           transform="translate(73.0839,31.1534)"
           id="g80"><path
             id="path82"
             style="fill:#050606;fill-opacity:1;fill-rule:nonzero;stroke:none"
             d="m 0,0 c -1.468,0 -2.582,-0.708 -3.009,-1.197 -0.365,-0.417 -0.396,-0.719 -0.396,-0.74 0,-0.062 0.042,-0.083 0.104,-0.083 0.167,0 0.406,0.146 0.49,0.198 0.218,0.146 0.249,0.208 0.312,0.406 0.146,0.416 0.437,0.781 1.749,0.843 -0.187,-2.343 -0.812,-4.623 -1.687,-6.799 -0.062,-0.157 -0.062,-0.177 -0.062,-0.188 0,-0.031 0.031,-0.073 0.104,-0.073 0.167,0 0.666,0.229 0.781,0.5 0.541,1.271 1.395,3.666 1.708,6.56 h 0.541 c 1.271,0 2.489,-0.489 2.489,-1.53 0,-0.781 -0.75,-2.239 -2.77,-2.302 -0.219,-0.01 -0.333,-0.01 -0.625,-0.198 -0.187,-0.124 -0.27,-0.239 -0.27,-0.301 0,-0.073 0.062,-0.073 0.197,-0.073 1.896,0 4.353,1.603 4.353,3.321 C 4.009,-0.469 2.603,0 1.395,0 Z" /></g><g
           transform="translate(80.9665,21.511)"
           id="g84"><path
             id="path86"
             style="fill:#050606;fill-opacity:1;fill-rule:nonzero;stroke:none"
             d="m 0,0 c 0,0.031 0,0.052 -0.177,0.229 -1.041,1.052 -1.624,2.77 -1.624,4.894 0,2.02 0.489,3.759 1.697,4.988 C 0,10.205 0,10.226 0,10.257 c 0,0.062 -0.052,0.083 -0.094,0.083 -0.135,0 -0.989,-0.75 -1.499,-1.77 -0.531,-1.052 -0.771,-2.166 -0.771,-3.447 0,-0.927 0.146,-2.166 0.688,-3.28 0.614,-1.249 1.468,-1.926 1.582,-1.926 C -0.052,-0.083 0,-0.062 0,0" /></g><g
           transform="translate(83.0317,24.2705)"
           id="g88"><path
             id="path90"
             style="fill:#050606;fill-opacity:1;fill-rule:nonzero;stroke:none"
             d="m 0,0 c 0.26,-0.24 0.646,-0.333 1,-0.333 0.666,0 1.124,0.448 1.364,0.77 0.104,-0.552 0.541,-0.77 0.906,-0.77 0.312,0 0.562,0.187 0.749,0.562 0.167,0.354 0.313,0.989 0.313,1.031 0,0.052 -0.042,0.094 -0.104,0.094 -0.094,0 -0.104,-0.052 -0.146,-0.209 -0.156,-0.614 -0.354,-1.27 -0.781,-1.27 -0.302,0 -0.323,0.271 -0.323,0.479 0,0.24 0.094,0.614 0.167,0.927 l 0.291,1.124 c 0.042,0.198 0.156,0.667 0.209,0.854 0.062,0.25 0.177,0.698 0.177,0.74 0,0.156 -0.125,0.26 -0.282,0.26 -0.093,0 -0.312,-0.042 -0.395,-0.354 L 2.416,1.01 C 2.364,0.802 2.364,0.781 2.228,0.614 2.103,0.437 1.697,-0.125 1.041,-0.125 c -0.583,0 -0.77,0.427 -0.77,0.916 0,0.302 0.093,0.667 0.135,0.844 L 0.875,3.509 C 0.927,3.707 1.01,4.04 1.01,4.103 c 0,0.166 -0.135,0.26 -0.271,0.26 -0.093,0 -0.322,-0.031 -0.406,-0.364 l -1.51,-6.03 c -0.01,-0.052 -0.031,-0.114 -0.031,-0.177 0,-0.156 0.125,-0.26 0.281,-0.26 0.302,0 0.365,0.24 0.438,0.531 z" /></g><g
           transform="translate(89.6746,23.9997)"
           id="g92"><path
             id="path94"
             style="fill:#050606;fill-opacity:1;fill-rule:nonzero;stroke:none"
             d="m 0,0 c 0,0.604 -0.198,1.052 -0.625,1.052 -0.333,0 -0.5,-0.271 -0.5,-0.5 0,-0.229 0.157,-0.51 0.511,-0.51 0.135,0 0.25,0.041 0.343,0.135 0.021,0.021 0.031,0.021 0.042,0.021 0.021,0 0.021,-0.146 0.021,-0.198 0,-0.344 -0.063,-1.02 -0.667,-1.697 -0.114,-0.125 -0.114,-0.146 -0.114,-0.167 0,-0.052 0.052,-0.104 0.104,-0.104 C -0.802,-1.968 0,-1.197 0,0" /></g><g
           transform="translate(95.1272,31.0077)"
           id="g96"><path
             id="path98"
             style="fill:#050606;fill-opacity:1;fill-rule:nonzero;stroke:none"
             d="m 0,0 c 0.01,0.042 0.031,0.104 0.031,0.156 0,0.104 -0.104,0.104 -0.125,0.104 -0.01,0 -0.385,-0.031 -0.572,-0.052 C -0.843,0.198 -1,0.177 -1.187,0.167 -1.437,0.146 -1.51,0.135 -1.51,-0.052 c 0,-0.104 0.104,-0.104 0.208,-0.104 0.531,0 0.531,-0.094 0.531,-0.198 0,-0.042 0,-0.063 -0.052,-0.25 L -2.312,-6.56 c -0.041,-0.156 -0.041,-0.177 -0.041,-0.24 0,-0.229 0.177,-0.27 0.281,-0.27 0.291,0 0.354,0.229 0.437,0.551 l 0.49,1.948 c 0.749,-0.084 1.197,-0.396 1.197,-0.896 0,-0.062 0,-0.104 -0.031,-0.26 -0.042,-0.156 -0.042,-0.281 -0.042,-0.333 0,-0.604 0.396,-1.01 0.927,-1.01 0.479,0 0.729,0.437 0.812,0.583 0.219,0.385 0.354,0.968 0.354,1.01 0,0.052 -0.041,0.094 -0.104,0.094 -0.094,0 -0.104,-0.042 -0.146,-0.209 -0.146,-0.541 -0.364,-1.27 -0.895,-1.27 -0.208,0 -0.344,0.104 -0.344,0.5 0,0.198 0.042,0.427 0.083,0.583 0.042,0.187 0.042,0.198 0.042,0.323 0,0.614 -0.552,0.958 -1.51,1.083 0.375,0.229 0.75,0.635 0.896,0.791 0.593,0.666 0.999,1 1.478,1 0.24,0 0.302,-0.063 0.375,-0.125 -0.385,-0.042 -0.531,-0.313 -0.531,-0.521 0,-0.25 0.198,-0.333 0.344,-0.333 0.281,0 0.531,0.239 0.531,0.572 0,0.302 -0.24,0.615 -0.708,0.615 -0.573,0 -1.042,-0.406 -1.781,-1.239 -0.104,-0.125 -0.489,-0.521 -0.875,-0.667 z" /></g><g
           transform="translate(100.7695,26.6342)"
           id="g100"><path
             id="path102"
             style="fill:#050606;fill-opacity:1;fill-rule:nonzero;stroke:none"
             d="m 0,0 c 0,0.791 -0.104,2.083 -0.687,3.29 -0.615,1.25 -1.468,1.927 -1.583,1.927 -0.042,0 -0.094,-0.021 -0.094,-0.083 0,-0.032 0,-0.052 0.177,-0.23 1.042,-1.051 1.625,-2.769 1.625,-4.894 0,-2.02 -0.49,-3.759 -1.698,-4.987 -0.104,-0.094 -0.104,-0.115 -0.104,-0.146 0,-0.063 0.052,-0.083 0.094,-0.083 0.135,0 0.989,0.749 1.499,1.77 C -0.24,-2.374 0,-1.25 0,0" /></g><g
           transform="translate(179.7128,6.3365)"
           id="g104"><path
             id="path106"
             style="fill:#050606;fill-opacity:1;fill-rule:nonzero;stroke:none"
             d="m 0,0 h -1.621 c -0.168,0 -0.192,0 -0.264,0.012 -0.132,0.012 -0.144,0.036 -0.144,0.132 0,0.084 0.024,0.156 0.048,0.264 L -1.14,3.794 H 1.116 C 2.533,3.794 2.533,2.473 2.533,2.377 2.533,1.224 1.489,0 0,0 m 1.705,3.938 c 1.308,0.24 2.497,1.152 2.497,2.256 0,0.937 -0.829,1.657 -2.185,1.657 h -3.854 c -0.228,0 -0.336,0 -0.336,-0.228 0,-0.12 0.108,-0.12 0.288,-0.12 0.733,0 0.733,-0.096 0.733,-0.228 0,-0.024 0,-0.096 -0.048,-0.276 L -2.821,0.54 C -2.929,0.12 -2.953,0 -3.794,0 c -0.228,0 -0.348,0 -0.348,-0.216 0,-0.132 0.072,-0.132 0.312,-0.132 h 4.118 c 1.837,0 3.253,1.392 3.253,2.605 0,0.984 -0.864,1.585 -1.836,1.681 M -0.324,7.035 C -0.216,7.479 -0.168,7.503 0.3,7.503 H 1.861 C 3.217,7.503 3.217,6.351 3.217,6.242 3.217,5.27 2.245,4.034 0.66,4.034 h -1.728 z" /></g><g
           transform="translate(59.1528,31.8129)"
           id="g108"><path
             id="path110"
             style="fill:none;stroke:#231f20;stroke-width:1;stroke-linecap:butt;stroke-linejoin:miter;stroke-miterlimit:10;stroke-dasharray:none;stroke-opacity:1"
             d="M 0,0 C -3.643,-4.045 -13.926,-6.957 -26.059,-6.957" /></g><g
           transform="translate(60.5656,35.0525)"
           id="g112"><path
             id="path114"
             style="fill:#231f20;fill-opacity:1;fill-rule:nonzero;stroke:none"
             d="m 0,0 -4.014,-3.573 2.344,0.166 1.306,-1.954 z" /></g><g
           transform="translate(32.6558,35.5521)"
           id="g116"><path
             id="path118"
             style="fill:none;stroke:#6f379e;stroke-width:0.5;stroke-linecap:butt;stroke-linejoin:miter;stroke-miterlimit:10;stroke-dasharray:none;stroke-opacity:1"
             d="m 0,0 c 4.042,5.583 11.452,9.364 19.246,9.821 5.182,0.303 10.807,-0.698 15.292,1.49 2.397,1.17 4.107,3.114 5.464,5.136 6.486,9.66 6.156,21.567 11.576,31.675 2.521,4.7 6.256,8.949 8.112,13.86 1.161,3.071 1.548,6.302 1.928,9.507" /></g><g
           transform="translate(34.5969,35.0525)"
           id="g120"><path
             id="path122"
             style="fill:#f03c2b;fill-opacity:1;fill-rule:nonzero;stroke:none"
             d="m 0,0 c 0,-1.143 -0.926,-2.069 -2.069,-2.069 -1.143,0 -2.069,0.926 -2.069,2.069 0,1.143 0.926,2.069 2.069,2.069 C -0.926,2.069 0,1.143 0,0" /></g><g
           transform="translate(95.7738,107.0411)"
           id="g124"><path
             id="path126"
             style="fill:#4b953f;fill-opacity:1;fill-rule:nonzero;stroke:none"
             d="M 0,0 C 0,-0.828 -0.672,-1.5 -1.5,-1.5 -2.328,-1.5 -3,-0.828 -3,0 -3,0.828 -2.328,1.5 -1.5,1.5 -0.672,1.5 0,0.828 0,0" /></g><g
           transform="translate(95.7738,107.0411)"
           id="g128"><path
             id="path130"
             style="fill:none;stroke:#4b953f;stroke-width:3;stroke-linecap:butt;stroke-linejoin:miter;stroke-miterlimit:10;stroke-dasharray:none;stroke-opacity:1"
             d="M 0,0 C 0,-0.828 -0.672,-1.5 -1.5,-1.5 -2.328,-1.5 -3,-0.828 -3,0 -3,0.828 -2.328,1.5 -1.5,1.5 -0.672,1.5 0,0.828 0,0 Z" /></g><g
           transform="translate(52.0412,47.2616)"
           id="g132"><path
             id="path134"
             style="fill:none;stroke:#4b953f;stroke-width:1;stroke-linecap:butt;stroke-linejoin:miter;stroke-miterlimit:10;stroke-dasharray:none;stroke-opacity:1"
             d="M 0,0 3.475,-3.475" /></g><g
           transform="translate(52.0412,43.7867)"
           id="g136"><path
             id="path138"
             style="fill:none;stroke:#4b953f;stroke-width:1;stroke-linecap:butt;stroke-linejoin:miter;stroke-miterlimit:10;stroke-dasharray:none;stroke-opacity:1"
             d="M 0,0 3.475,3.475" /></g><g
           transform="translate(76.4991,66.9749)"
           id="g140"><path
             id="path142"
             style="fill:none;stroke:#4b953f;stroke-width:1;stroke-linecap:butt;stroke-linejoin:miter;stroke-miterlimit:10;stroke-dasharray:none;stroke-opacity:1"
             d="M 0,0 3.475,-3.475" /></g><g
           transform="translate(76.4991,63.5)"
           id="g144"><path
             id="path146"
             style="fill:none;stroke:#4b953f;stroke-width:1;stroke-linecap:butt;stroke-linejoin:miter;stroke-miterlimit:10;stroke-dasharray:none;stroke-opacity:1"
             d="M 0,0 3.475,3.475" /></g><g
           transform="translate(84.5188,89.3206)"
           id="g148"><path
             id="path150"
             style="fill:none;stroke:#4b953f;stroke-width:1;stroke-linecap:butt;stroke-linejoin:miter;stroke-miterlimit:10;stroke-dasharray:none;stroke-opacity:1"
             d="M 0,0 3.475,-3.475" /></g><g
           transform="translate(84.5188,85.8457)"
           id="g152"><path
             id="path154"
             style="fill:none;stroke:#4b953f;stroke-width:1;stroke-linecap:butt;stroke-linejoin:miter;stroke-miterlimit:10;stroke-dasharray:none;stroke-opacity:1"
             d="M 0,0 3.475,3.475" /></g><g
           transform="translate(47.2784,7.5094)"
           id="g156"><path
             id="path158"
             style="fill:#050606;fill-opacity:1;fill-rule:nonzero;stroke:none"
             d="m 0,0 h -1.487 c -0.154,0 -0.176,0 -0.242,0.011 -0.121,0.011 -0.132,0.033 -0.132,0.121 0,0.077 0.022,0.143 0.044,0.242 l 0.771,3.106 h 2.07 C 2.323,3.48 2.323,2.268 2.323,2.18 2.323,1.123 1.365,0 0,0 m 1.564,3.612 c 1.2,0.22 2.29,1.057 2.29,2.07 0,0.859 -0.76,1.52 -2.004,1.52 h -3.535 c -0.209,0 -0.308,0 -0.308,-0.21 0,-0.11 0.099,-0.11 0.264,-0.11 0.672,0 0.672,-0.088 0.672,-0.209 0,-0.022 0,-0.088 -0.044,-0.253 L -2.588,0.496 C -2.687,0.11 -2.709,0 -3.48,0 c -0.209,0 -0.319,0 -0.319,-0.198 0,-0.121 0.066,-0.121 0.286,-0.121 h 3.777 c 1.685,0 2.984,1.277 2.984,2.389 0,0.903 -0.792,1.454 -1.684,1.542 m -1.861,2.841 c 0.099,0.407 0.143,0.429 0.572,0.429 H 1.707 C 2.951,6.882 2.951,5.825 2.951,5.726 2.951,4.834 2.059,3.7 0.606,3.7 H -0.98 Z" /></g><g
           transform="translate(52.734,8.4601)"
           id="g160"><path
             id="path162"
             style="fill:#050606;fill-opacity:1;fill-rule:nonzero;stroke:none"
             d="m 0,0 h 0.719 c 0.14,0 0.228,0 0.228,0.139 0,0.103 -0.095,0.103 -0.22,0.103 H 0.059 l 0.264,1.043 c 0.029,0.11 0.029,0.147 0.029,0.154 0,0.154 -0.117,0.227 -0.242,0.227 -0.249,0 -0.301,-0.198 -0.382,-0.528 L -0.499,0.242 h -0.705 c -0.139,0 -0.235,0 -0.235,-0.139 C -1.439,0 -1.343,0 -1.219,0 h 0.661 l -0.44,-1.762 c -0.044,-0.183 -0.111,-0.44 -0.111,-0.543 0,-0.441 0.36,-0.69 0.749,-0.69 0.786,0 1.234,1.035 1.234,1.123 0,0.081 -0.066,0.095 -0.111,0.095 -0.08,0 -0.088,-0.029 -0.139,-0.139 C 0.477,-2.268 0.11,-2.79 -0.338,-2.79 c -0.154,0 -0.242,0.103 -0.242,0.345 0,0.14 0.022,0.221 0.044,0.316 z" /></g><path
           id="path164"
           style="fill:#d6f1f2;fill-opacity:1;fill-rule:nonzero;stroke:none"
           d="M 453.319,41.837 H 343.457 v 110.255 h 109.862 z" /><path
           id="path166"
           style="fill:#71d0d5;fill-opacity:1;fill-rule:nonzero;stroke:none"
           d="m 343.457,16.856 h -33.32 v 24.981 h 33.32 z" /><g
           transform="translate(310.1366,200.9942)"
           id="g168"><path
             id="path170"
             style="fill:#ffffff;fill-opacity:1;fill-rule:nonzero;stroke:none"
             d="M 0,0 V -190.906" /></g><g
           transform="translate(310.1366,193.9336)"
           id="g172"><path
             id="path174"
             style="fill:none;stroke:#656263;stroke-width:1;stroke-linecap:butt;stroke-linejoin:miter;stroke-miterlimit:10;stroke-dasharray:none;stroke-opacity:1"
             d="M 0,0 V -183.846" /></g><g
           transform="translate(310.1366,200.9942)"
           id="g176"><path
             id="path178"
             style="fill:#656263;fill-opacity:1;fill-rule:nonzero;stroke:none"
             d="M 0,0 -4.065,-9.949 0,-7.588 4.064,-9.949 Z" /></g><g
           transform="translate(502.6926,16.8563)"
           id="g180"><path
             id="path182"
             style="fill:#ffffff;fill-opacity:1;fill-rule:nonzero;stroke:none"
             d="M 0,0 H -199.19" /></g><g
           transform="translate(495.632,16.8563)"
           id="g184"><path
             id="path186"
             style="fill:none;stroke:#656263;stroke-width:1;stroke-linecap:butt;stroke-linejoin:miter;stroke-miterlimit:10;stroke-dasharray:none;stroke-opacity:1"
             d="M 0,0 H -192.13" /></g><g
           transform="translate(502.6926,16.8563)"
           id="g188"><path
             id="path190"
             style="fill:#656263;fill-opacity:1;fill-rule:nonzero;stroke:none"
             d="M 0,0 -9.949,4.065 -7.588,0 -9.949,-4.064 Z" /></g><g
           transform="translate(350.4484,12.9369)"
           id="g192"><path
             id="path194"
             style="fill:none;stroke:#918f90;stroke-width:0.5;stroke-linecap:butt;stroke-linejoin:miter;stroke-miterlimit:10;stroke-dasharray:3, 2;stroke-dashoffset:0;stroke-opacity:1"
             d="M 0,0 -43.034,43.034" /></g><g
           transform="translate(374.0356,11.5819)"
           id="g196"><path
             id="path198"
             style="fill:none;stroke:#231f20;stroke-width:0.5;stroke-linecap:butt;stroke-linejoin:miter;stroke-miterlimit:10;stroke-dasharray:3, 2;stroke-dashoffset:0;stroke-opacity:1"
             d="M 0,0 -67.976,67.976" /></g><g
           transform="translate(483.6848,11.2314)"
           id="g200"><path
             id="path202"
             style="fill:none;stroke:#231f20;stroke-width:0.5;stroke-linecap:butt;stroke-linejoin:miter;stroke-miterlimit:10;stroke-dasharray:3, 2;stroke-dashoffset:0;stroke-opacity:1"
             d="M 0,0 -178.037,178.037" /></g><g
           transform="translate(306.6659,184.9715)"
           id="g204"><path
             id="path206"
             style="fill:#050606;fill-opacity:1;fill-rule:nonzero;stroke:none"
             d="m 0,0 c 0,0.167 -0.13,0.167 -0.167,0.167 -0.075,0 -0.093,-0.018 -0.317,-0.297 -0.111,-0.13 -0.874,-1.097 -0.892,-1.116 -0.614,1.209 -1.841,1.413 -2.622,1.413 -2.362,0 -4.501,-2.157 -4.501,-4.258 0,-1.395 0.837,-2.214 1.748,-2.53 0.205,-0.074 1.302,-0.372 1.86,-0.502 0.948,-0.26 1.19,-0.335 1.581,-0.744 0.074,-0.093 0.446,-0.521 0.446,-1.395 0,-1.729 -1.599,-3.515 -3.459,-3.515 -1.525,0 -3.218,0.651 -3.218,2.734 0,0.354 0.075,0.8 0.131,0.986 0,0.056 0.018,0.149 0.018,0.186 0,0.074 -0.037,0.167 -0.186,0.167 -0.167,0 -0.186,-0.037 -0.26,-0.353 l -0.949,-3.813 c 0,-0.018 -0.074,-0.26 -0.074,-0.278 0,-0.168 0.149,-0.168 0.186,-0.168 0.074,0 0.093,0.019 0.316,0.298 l 0.856,1.116 c 0.446,-0.67 1.413,-1.414 3.143,-1.414 2.399,0 4.593,2.325 4.593,4.65 0,0.781 -0.186,1.469 -0.892,2.157 -0.391,0.39 -0.726,0.483 -2.437,0.93 -1.246,0.334 -1.413,0.39 -1.748,0.688 -0.316,0.316 -0.558,0.762 -0.558,1.395 0,1.562 1.581,3.161 3.348,3.161 1.822,0 2.678,-1.116 2.678,-2.882 0,-0.484 -0.093,-0.986 -0.093,-1.06 0,-0.168 0.149,-0.168 0.204,-0.168 0.168,0 0.186,0.056 0.261,0.354 z" /></g><g
           transform="translate(509.0869,12.6547)"
           id="g208"><path
             id="path210"
             style="fill:#050606;fill-opacity:1;fill-rule:nonzero;stroke:none"
             d="m 0,0 c 0,0.159 -0.124,0.159 -0.159,0.159 -0.035,0 -0.106,0 -0.248,-0.177 l -1.219,-1.484 c -0.619,1.06 -1.591,1.661 -2.916,1.661 -3.818,0 -7.777,-3.871 -7.777,-8.024 0,-2.952 2.068,-4.79 4.648,-4.79 1.414,0 2.651,0.601 3.677,1.467 1.537,1.29 1.997,3.005 1.997,3.146 0,0.159 -0.142,0.159 -0.195,0.159 -0.159,0 -0.176,-0.106 -0.212,-0.176 -0.813,-2.758 -3.199,-4.083 -4.966,-4.083 -1.874,0 -3.5,1.202 -3.5,3.711 0,0.566 0.177,3.641 2.174,5.957 0.972,1.131 2.634,2.121 4.313,2.121 1.944,0 2.81,-1.609 2.81,-3.412 0,-0.459 -0.053,-0.848 -0.053,-0.919 0,-0.159 0.177,-0.159 0.23,-0.159 0.194,0 0.212,0.018 0.283,0.336 z" /></g><g
           transform="translate(437.8637,6.3365)"
           id="g212"><path
             id="path214"
             style="fill:#050606;fill-opacity:1;fill-rule:nonzero;stroke:none"
             d="m 0,0 h -1.621 c -0.168,0 -0.192,0 -0.264,0.012 -0.132,0.012 -0.144,0.036 -0.144,0.132 0,0.084 0.024,0.156 0.048,0.264 L -1.14,3.794 H 1.116 C 2.533,3.794 2.533,2.473 2.533,2.377 2.533,1.224 1.489,0 0,0 m 1.705,3.938 c 1.308,0.24 2.497,1.152 2.497,2.256 0,0.937 -0.829,1.657 -2.185,1.657 h -3.854 c -0.228,0 -0.336,0 -0.336,-0.228 0,-0.12 0.108,-0.12 0.288,-0.12 0.733,0 0.733,-0.096 0.733,-0.228 0,-0.024 0,-0.096 -0.048,-0.276 L -2.821,0.54 C -2.929,0.12 -2.953,0 -3.793,0 c -0.229,0 -0.349,0 -0.349,-0.216 0,-0.132 0.072,-0.132 0.313,-0.132 h 4.117 c 1.837,0 3.253,1.392 3.253,2.605 0,0.984 -0.864,1.585 -1.836,1.681 M -0.324,7.035 C -0.216,7.479 -0.168,7.503 0.3,7.503 H 1.861 C 3.217,7.503 3.217,6.351 3.217,6.242 3.217,5.27 2.245,4.034 0.66,4.034 h -1.728 z" /></g><g
           transform="translate(342.7759,7.2198)"
           id="g216"><path
             id="path218"
             style="fill:#918f90;fill-opacity:1;fill-rule:nonzero;stroke:none"
             d="m 0,0 h -1.487 c -0.154,0 -0.176,0 -0.242,0.011 -0.121,0.011 -0.132,0.033 -0.132,0.121 0,0.077 0.022,0.143 0.044,0.242 l 0.771,3.106 h 2.07 C 2.323,3.48 2.323,2.268 2.323,2.18 2.323,1.123 1.365,0 0,0 m 1.564,3.612 c 1.2,0.22 2.29,1.057 2.29,2.07 0,0.859 -0.76,1.52 -2.004,1.52 h -3.535 c -0.209,0 -0.308,0 -0.308,-0.21 0,-0.11 0.099,-0.11 0.264,-0.11 0.672,0 0.672,-0.088 0.672,-0.209 0,-0.022 0,-0.088 -0.044,-0.253 L -2.588,0.496 C -2.687,0.11 -2.709,0 -3.48,0 c -0.209,0 -0.319,0 -0.319,-0.198 0,-0.121 0.066,-0.121 0.286,-0.121 h 3.777 c 1.685,0 2.984,1.277 2.984,2.389 0,0.903 -0.792,1.454 -1.684,1.542 m -1.861,2.841 c 0.099,0.407 0.143,0.429 0.572,0.429 H 1.707 C 2.951,6.882 2.951,5.825 2.951,5.726 2.951,4.834 2.059,3.7 0.606,3.7 H -0.98 Z" /></g><g
           transform="translate(348.2315,8.1705)"
           id="g220"><path
             id="path222"
             style="fill:#918f90;fill-opacity:1;fill-rule:nonzero;stroke:none"
             d="m 0,0 h 0.719 c 0.14,0 0.228,0 0.228,0.139 0,0.103 -0.095,0.103 -0.22,0.103 H 0.059 l 0.264,1.043 c 0.029,0.11 0.029,0.147 0.029,0.154 0,0.154 -0.117,0.227 -0.242,0.227 -0.249,0 -0.301,-0.198 -0.382,-0.528 L -0.499,0.242 h -0.705 c -0.139,0 -0.235,0 -0.235,-0.139 C -1.439,0 -1.343,0 -1.219,0 h 0.661 l -0.44,-1.762 c -0.044,-0.183 -0.111,-0.44 -0.111,-0.543 0,-0.441 0.36,-0.69 0.749,-0.69 0.786,0 1.234,1.035 1.234,1.123 0,0.081 -0.066,0.095 -0.111,0.095 -0.08,0 -0.088,-0.029 -0.139,-0.139 C 0.477,-2.268 0.11,-2.79 -0.338,-2.79 c -0.154,0 -0.242,0.103 -0.242,0.345 0,0.14 0.022,0.221 0.044,0.316 z" /></g><g
           transform="translate(378.5072,8.3006)"
           id="g224"><path
             id="path226"
             style="fill:#050606;fill-opacity:1;fill-rule:nonzero;stroke:none"
             d="m 0,0 h -1.377 c -0.143,0 -0.164,0 -0.225,0.01 -0.112,0.01 -0.122,0.031 -0.122,0.112 0,0.072 0.02,0.133 0.04,0.225 l 0.715,2.877 H 0.949 C 2.153,3.224 2.153,2.102 2.153,2.02 2.153,1.041 1.265,0 0,0 m 1.449,3.347 c 1.112,0.204 2.122,0.979 2.122,1.918 0,0.796 -0.704,1.408 -1.857,1.408 h -3.275 c -0.194,0 -0.286,0 -0.286,-0.194 0,-0.102 0.092,-0.102 0.245,-0.102 0.623,0 0.623,-0.082 0.623,-0.194 0,-0.02 0,-0.082 -0.041,-0.235 L -2.398,0.459 C -2.49,0.102 -2.51,0 -3.224,0 -3.418,0 -3.52,0 -3.52,-0.184 c 0,-0.112 0.061,-0.112 0.265,-0.112 h 3.5 c 1.561,0 2.765,1.184 2.765,2.214 0,0.837 -0.735,1.347 -1.561,1.429 m -1.724,2.632 c 0.091,0.377 0.132,0.398 0.53,0.398 h 1.326 c 1.153,0 1.153,-0.98 1.153,-1.071 0,-0.827 -0.826,-1.878 -2.173,-1.878 h -1.469 z" /></g><g
           transform="translate(383.562,9.1814)"
           id="g228"><path
             id="path230"
             style="fill:#050606;fill-opacity:1;fill-rule:nonzero;stroke:none"
             d="m 0,0 h 0.667 c 0.129,0 0.21,0 0.21,0.129 0,0.095 -0.088,0.095 -0.204,0.095 H 0.054 L 0.299,1.19 c 0.028,0.102 0.028,0.136 0.028,0.143 0,0.143 -0.109,0.211 -0.225,0.211 -0.231,0 -0.279,-0.184 -0.354,-0.49 l -0.211,-0.83 h -0.653 c -0.129,0 -0.217,0 -0.217,-0.129 C -1.333,0 -1.245,0 -1.129,0 h 0.612 l -0.408,-1.632 c -0.041,-0.171 -0.102,-0.409 -0.102,-0.504 0,-0.408 0.333,-0.639 0.694,-0.639 0.728,0 1.142,0.959 1.142,1.041 0,0.074 -0.061,0.088 -0.102,0.088 -0.074,0 -0.081,-0.027 -0.129,-0.129 -0.136,-0.327 -0.476,-0.81 -0.891,-0.81 -0.143,0 -0.224,0.095 -0.224,0.32 0,0.129 0.02,0.204 0.04,0.292 z" /></g><g
           transform="translate(387.6241,8.0183)"
           id="g232"><path
             id="path234"
             style="fill:#050606;fill-opacity:1;fill-rule:nonzero;stroke:none"
             d="M 0,0 H 2 C 2.095,0 2.245,0 2.245,0.156 2.245,0.313 2.095,0.313 2,0.313 H 0 v 2.006 c 0,0.096 0,0.245 -0.156,0.245 -0.157,0 -0.157,-0.149 -0.157,-0.245 V 0.313 h -2.006 c -0.096,0 -0.245,0 -0.245,-0.157 C -2.564,0 -2.415,0 -2.319,0 h 2.006 v -2.007 c 0,-0.095 0,-0.244 0.157,-0.244 C 0,-2.251 0,-2.102 0,-2.007 Z" /></g><g
           transform="translate(392.3944,10.8071)"
           id="g236"><path
             id="path238"
             style="fill:#050606;fill-opacity:1;fill-rule:nonzero;stroke:none"
             d="m 0,0 c 0,0.184 -0.014,0.19 -0.197,0.19 -0.279,-0.272 -0.64,-0.435 -1.286,-0.435 v -0.224 c 0.184,0 0.551,0 0.946,0.183 v -3.489 c 0,-0.252 -0.021,-0.333 -0.667,-0.333 h -0.238 v -0.225 c 0.279,0.021 0.864,0.021 1.17,0.021 0.306,0 0.898,0 1.177,-0.021 v 0.225 H 0.667 C 0.02,-4.108 0,-4.027 0,-3.775 Z" /></g><g
           transform="translate(420.014,76.4022)"
           id="g240"><path
             id="path242"
             style="fill:#4b953f;fill-opacity:1;fill-rule:nonzero;stroke:none"
             d="M 0,0 C 0,-0.828 -0.672,-1.5 -1.5,-1.5 -2.328,-1.5 -3,-0.828 -3,0 -3,0.828 -2.328,1.5 -1.5,1.5 -0.672,1.5 0,0.828 0,0" /></g><g
           transform="translate(420.014,76.4022)"
           id="g244"><path
             id="path246"
             style="fill:none;stroke:#4b953f;stroke-width:3;stroke-linecap:butt;stroke-linejoin:miter;stroke-miterlimit:10;stroke-dasharray:none;stroke-opacity:1"
             d="M 0,0 C 0,-0.828 -0.672,-1.5 -1.5,-1.5 -2.328,-1.5 -3,-0.828 -3,0 -3,0.828 -2.328,1.5 -1.5,1.5 -0.672,1.5 0,0.828 0,0 Z" /></g><g
           transform="translate(343.4571,41.8371)"
           id="g248"><path
             id="path250"
             style="fill:none;stroke:#6f379e;stroke-width:0.5;stroke-linecap:butt;stroke-linejoin:miter;stroke-miterlimit:10;stroke-dasharray:none;stroke-opacity:1"
             d="m 0,0 c 7.334,4.205 15.772,5.563 24.059,6.161 8.287,0.597 16.649,0.507 24.822,2.098 2.42,0.471 4.833,1.095 7.066,2.206 5.561,2.767 9.488,8.256 12.942,13.711 2.15,3.397 4.207,6.862 6.168,10.389" /></g><g
           transform="translate(345.526,41.8371)"
           id="g252"><path
             id="path254"
             style="fill:#f03c2b;fill-opacity:1;fill-rule:nonzero;stroke:none"
             d="m 0,0 c 0,-1.143 -0.926,-2.069 -2.069,-2.069 -1.143,0 -2.069,0.926 -2.069,2.069 0,1.143 0.926,2.069 2.069,2.069 C -0.926,2.069 0,1.143 0,0" /></g><g
           transform="translate(368.165,49.8695)"
           id="g256"><path
             id="path258"
             style="fill:none;stroke:#4b953f;stroke-width:1;stroke-linecap:butt;stroke-linejoin:miter;stroke-miterlimit:10;stroke-dasharray:none;stroke-opacity:1"
             d="M 0,0 3.475,-3.475" /></g><g
           transform="translate(368.165,46.3946)"
           id="g260"><path
             id="path262"
             style="fill:none;stroke:#4b953f;stroke-width:1;stroke-linecap:butt;stroke-linejoin:miter;stroke-miterlimit:10;stroke-dasharray:none;stroke-opacity:1"
             d="M 0,0 3.475,3.475" /></g><g
           transform="translate(405.0068,59.528)"
           id="g264"><path
             id="path266"
             style="fill:none;stroke:#4b953f;stroke-width:1;stroke-linecap:butt;stroke-linejoin:miter;stroke-miterlimit:10;stroke-dasharray:none;stroke-opacity:1"
             d="M 0,0 3.475,-3.475" /></g><g
           transform="translate(405.0068,56.0532)"
           id="g268"><path
             id="path270"
             style="fill:none;stroke:#4b953f;stroke-width:1;stroke-linecap:butt;stroke-linejoin:miter;stroke-miterlimit:10;stroke-dasharray:none;stroke-opacity:1"
             d="M 0,0 3.475,3.475" /></g><text
           id="text274"
           style="font-variant:normal;font-weight:normal;font-stretch:normal;font-size:12px;font-family:'Myriad Pro';-inkscape-font-specification:MyriadPro-Regular;writing-mode:lr-tb;fill:#231f20;fill-opacity:1;fill-rule:nonzero;stroke:none"
           transform="matrix(1,0,0,-1,78.8467,200.2676)"><tspan
             id="tspan272"
             y="0"
             x="0 5.8200002 8.6280003 18.636 24.648001 27.191999 31.944 35.844002 41.855999 279.672 285.492 288.29999 298.30801 304.32001 306.86401 311.616 315.51599 321.52802">Time stepTime step</tspan></text>
<g
           transform="translate(134.6756,205.1929)"
           id="g276"><path
             id="path278"
             style="fill:#050606;fill-opacity:1;fill-rule:nonzero;stroke:none"
             d="m 0,0 h 1.367 c 0.282,0 0.431,0 0.431,0.267 0,0.164 -0.089,0.164 -0.387,0.164 H 0.104 L 0.654,2.6 c 0.059,0.208 0.059,0.238 0.059,0.342 0,0.238 -0.193,0.371 -0.386,0.371 -0.119,0 -0.461,-0.044 -0.58,-0.52 L -0.832,0.431 h -1.397 c -0.297,0 -0.431,0 -0.431,-0.282 C -2.66,0 -2.556,0 -2.273,0 h 1.322 l -0.981,-3.922 c -0.118,-0.521 -0.163,-0.669 -0.163,-0.862 0,-0.699 0.49,-1.337 1.322,-1.337 1.501,0 2.303,2.169 2.303,2.273 0,0.089 -0.059,0.134 -0.148,0.134 -0.03,0 -0.089,0 -0.119,-0.06 -0.015,-0.015 -0.03,-0.03 -0.134,-0.267 -0.312,-0.743 -0.995,-1.783 -1.857,-1.783 -0.446,0 -0.475,0.371 -0.475,0.698 0,0.015 0,0.297 0.044,0.475 z" /></g><g
           transform="translate(413.6014,205.1428)"
           id="g280"><path
             id="path282"
             style="fill:#050606;fill-opacity:1;fill-rule:nonzero;stroke:none"
             d="m 0,0 h 1.153 c 0.239,0 0.364,0 0.364,0.226 0,0.138 -0.075,0.138 -0.326,0.138 H 0.088 l 0.464,1.83 c 0.05,0.176 0.05,0.201 0.05,0.288 0,0.201 -0.163,0.314 -0.326,0.314 -0.1,0 -0.389,-0.038 -0.489,-0.439 L -0.702,0.364 h -1.179 c -0.25,0 -0.363,0 -0.363,-0.239 C -2.244,0 -2.156,0 -1.918,0 h 1.116 L -1.63,-3.31 c -0.1,-0.439 -0.138,-0.564 -0.138,-0.727 0,-0.589 0.414,-1.128 1.116,-1.128 1.266,0 1.943,1.83 1.943,1.918 0,0.075 -0.05,0.113 -0.125,0.113 -0.025,0 -0.075,0 -0.1,-0.05 C 1.053,-3.197 1.041,-3.21 0.953,-3.41 0.69,-4.037 0.113,-4.915 -0.614,-4.915 c -0.376,0 -0.402,0.314 -0.402,0.59 0,0.012 0,0.25 0.038,0.401 z" /></g><g
           transform="translate(423.286,202.999)"
           id="g284"><path
             id="path286"
             style="fill:#050606;fill-opacity:1;fill-rule:nonzero;stroke:none"
             d="m 0,0 h 3.46 c 0.176,0 0.401,0 0.401,0.226 0,0.238 -0.213,0.238 -0.401,0.238 H 0 v 3.46 c 0,0.176 0,0.401 -0.226,0.401 -0.238,0 -0.238,-0.213 -0.238,-0.401 v -3.46 h -3.46 c -0.176,0 -0.401,0 -0.401,-0.226 C -4.325,0 -4.112,0 -3.924,0 h 3.46 v -3.46 c 0,-0.176 0,-0.401 0.226,-0.401 C 0,-3.861 0,-3.648 0,-3.46 Z" /></g><g
           transform="translate(434.1922,208.1392)"
           id="g288"><path
             id="path290"
             style="fill:#050606;fill-opacity:1;fill-rule:nonzero;stroke:none"
             d="M 0,0 C 0,0.288 0,0.301 -0.251,0.301 -0.552,-0.038 -1.178,-0.501 -2.47,-0.501 v -0.364 c 0.289,0 0.915,0 1.605,0.326 v -6.532 c 0,-0.451 -0.038,-0.602 -1.141,-0.602 h -0.389 v -0.363 c 0.339,0.025 1.555,0.025 1.969,0.025 0.413,0 1.617,0 1.956,-0.025 v 0.363 H 1.141 C 0.038,-7.673 0,-7.522 0,-7.071 Z" /></g><g
           transform="translate(190.5745,116.8227)"
           id="g292"><path
             id="path294"
             style="fill:#050606;fill-opacity:1;fill-rule:nonzero;stroke:none"
             d="m 0,0 h -1.421 c -0.147,0 -0.168,0 -0.231,0.011 -0.116,0.01 -0.127,0.031 -0.127,0.115 0,0.074 0.021,0.137 0.042,0.232 L -1,3.326 H 0.979 C 2.221,3.326 2.221,2.168 2.221,2.084 2.221,1.074 1.305,0 0,0 m 1.495,3.452 c 1.147,0.211 2.189,1.011 2.189,1.979 0,0.821 -0.726,1.453 -1.916,1.453 H -1.61 c -0.2,0 -0.295,0 -0.295,-0.2 0,-0.106 0.095,-0.106 0.253,-0.106 0.642,0 0.642,-0.084 0.642,-0.2 0,-0.021 0,-0.084 -0.043,-0.242 L -2.473,0.474 C -2.568,0.105 -2.589,0 -3.326,0 c -0.2,0 -0.305,0 -0.305,-0.189 0,-0.116 0.063,-0.116 0.273,-0.116 h 3.611 c 1.61,0 2.852,1.221 2.852,2.284 0,0.863 -0.758,1.389 -1.61,1.473 m -1.779,2.716 c 0.095,0.389 0.137,0.41 0.547,0.41 h 1.368 c 1.19,0 1.19,-1.01 1.19,-1.105 0,-0.852 -0.853,-1.937 -2.242,-1.937 h -1.516 z" /></g><g
           transform="translate(201.3358,125.6107)"
           id="g296"><path
             id="path298"
             style="fill:#ffffff;fill-opacity:1;fill-rule:nonzero;stroke:none"
             d="M 0,0 H -98.31" /></g><g
           transform="translate(198.6881,125.6107)"
           id="g300"><path
             id="path302"
             style="fill:none;stroke:#656263;stroke-width:0.75;stroke-linecap:butt;stroke-linejoin:miter;stroke-miterlimit:10;stroke-dasharray:none;stroke-opacity:1"
             d="M 0,0 H -95.662" /></g><g
           transform="translate(201.3358,125.6107)"
           id="g304"><path
             id="path306"
             style="fill:#656263;fill-opacity:1;fill-rule:nonzero;stroke:none"
             d="M 0,0 -3.731,1.525 -2.846,0 -3.731,-1.524 Z" /></g><g
           transform="translate(104.1427,125.6107)"
           id="g308"><path
             id="path310"
             style="fill:none;stroke:#70379e;stroke-width:0.75;stroke-linecap:butt;stroke-linejoin:miter;stroke-miterlimit:10;stroke-dasharray:none;stroke-opacity:1"
             d="m 0,0 c 3.861,14.883 15.881,27.299 30.486,31.491 3.703,1.063 7.523,1.627 11.331,2.188 13.134,1.936 26.268,3.872 39.402,5.807" /></g><g
           transform="translate(118.6622,148.6377)"
           id="g312"><path
             id="path314"
             style="fill:none;stroke:#40bb6a;stroke-width:0.25;stroke-linecap:butt;stroke-linejoin:miter;stroke-miterlimit:10;stroke-dasharray:none;stroke-opacity:1"
             d="M 0,0 V -0.5" /></g><g
           transform="translate(118.6622,147.1312)"
           id="g316"><path
             id="path318"
             style="fill:none;stroke:#40bb6a;stroke-width:0.25;stroke-linecap:butt;stroke-linejoin:miter;stroke-miterlimit:10;stroke-dasharray:1.006, 1.006;stroke-dashoffset:0;stroke-opacity:1"
             d="M 0,0 V -21.639" /></g><g
           transform="translate(118.6622,124.989)"
           id="g320"><path
             id="path322"
             style="fill:none;stroke:#40bb6a;stroke-width:0.25;stroke-linecap:butt;stroke-linejoin:miter;stroke-miterlimit:10;stroke-dasharray:none;stroke-opacity:1"
             d="M 0,0 V -0.5" /></g><g
           transform="translate(185.3615,167.4362)"
           id="g324"><path
             id="path326"
             style="fill:none;stroke:#40bb6a;stroke-width:0.25;stroke-linecap:butt;stroke-linejoin:miter;stroke-miterlimit:10;stroke-dasharray:1, 1;stroke-dashoffset:0;stroke-opacity:1"
             d="M 0,0 V -42.947" /></g><g
           transform="translate(103.9715,184.2065)"
           id="g328"><path
             id="path330"
             style="fill:#ffffff;fill-opacity:1;fill-rule:nonzero;stroke:none"
             d="M 0,0 V -58.593" /></g><g
           transform="translate(103.9715,181.5588)"
           id="g332"><path
             id="path334"
             style="fill:none;stroke:#656263;stroke-width:0.75;stroke-linecap:butt;stroke-linejoin:miter;stroke-miterlimit:10;stroke-dasharray:none;stroke-opacity:1"
             d="M 0,0 V -55.945" /></g><g
           transform="translate(103.9715,184.2065)"
           id="g336"><path
             id="path338"
             style="fill:#656263;fill-opacity:1;fill-rule:nonzero;stroke:none"
             d="M 0,0 -1.525,-3.731 0,-2.846 1.524,-3.731 Z" /></g><g
           transform="translate(105.5533,125.2881)"
           id="g340"><path
             id="path342"
             style="fill:#f03c2b;fill-opacity:1;fill-rule:nonzero;stroke:none"
             d="m 0,0 c 0,-0.874 -0.708,-1.582 -1.582,-1.582 -0.873,0 -1.582,0.708 -1.582,1.582 0,0.874 0.709,1.582 1.582,1.582 C -0.708,1.582 0,0.874 0,0" /></g><g
           id="g344"><g
             id="g346" /><g
             id="g450"><g
               id="g448"
               clip-path="url(#clipPath350)"><g
                 id="g386"><g
                   id="g376" /><g
                   id="g384"><g
                     id="g382"
                     clip-path="url(#clipPath354)"><g
                       id="g380"
                       transform="translate(186.1679,165.0972)"><path
                         id="path378"
                         style="fill:none;stroke:#40bb6a;stroke-width:0.25;stroke-linecap:butt;stroke-linejoin:miter;stroke-miterlimit:10;stroke-dasharray:none;stroke-opacity:1"
                         d="M 0,0 H -0.5" /></g></g></g></g><g
                 id="g398"><g
                   id="g388" /><g
                   id="g396"><g
                     id="g394"
                     clip-path="url(#clipPath358)"><g
                       id="g392"
                       transform="translate(184.6648,165.0972)"><path
                         id="path390"
                         style="fill:none;stroke:#40bb6a;stroke-width:0.25;stroke-linecap:butt;stroke-linejoin:miter;stroke-miterlimit:10;stroke-dasharray:1.003, 1.003;stroke-dashoffset:0;stroke-opacity:1"
                         d="M 0,0 H -81.754" /></g></g></g></g><g
                 id="g410"><g
                   id="g400" /><g
                   id="g408"><g
                     id="g406"
                     clip-path="url(#clipPath362)"><g
                       id="g404"
                       transform="translate(102.4095,165.0972)"><path
                         id="path402"
                         style="fill:none;stroke:#40bb6a;stroke-width:0.25;stroke-linecap:butt;stroke-linejoin:miter;stroke-miterlimit:10;stroke-dasharray:none;stroke-opacity:1"
                         d="M 0,0 H -0.5" /></g></g></g></g><g
                 id="g422"><g
                   id="g412" /><g
                   id="g420"><g
                     id="g418"
                     clip-path="url(#clipPath366)"><g
                       id="g416"
                       transform="translate(118.6622,148.6377)"><path
                         id="path414"
                         style="fill:none;stroke:#40bb6a;stroke-width:0.25;stroke-linecap:butt;stroke-linejoin:miter;stroke-miterlimit:10;stroke-dasharray:none;stroke-opacity:1"
                         d="M 0,0 H -0.5" /></g></g></g></g><g
                 id="g434"><g
                   id="g424" /><g
                   id="g432"><g
                     id="g430"
                     clip-path="url(#clipPath370)"><g
                       id="g428"
                       transform="translate(117.1121,148.6377)"><path
                         id="path426"
                         style="fill:none;stroke:#40bb6a;stroke-width:0.25;stroke-linecap:butt;stroke-linejoin:miter;stroke-miterlimit:10;stroke-dasharray:1.05, 1.05;stroke-dashoffset:0;stroke-opacity:1"
                         d="M 0,0 H -14.177" /></g></g></g></g><g
                 id="g446"><g
                   id="g436" /><g
                   id="g444"><g
                     id="g442"
                     clip-path="url(#clipPath374)"><g
                       id="g440"
                       transform="translate(102.4095,148.6377)"><path
                         id="path438"
                         style="fill:none;stroke:#40bb6a;stroke-width:0.25;stroke-linecap:butt;stroke-linejoin:miter;stroke-miterlimit:10;stroke-dasharray:none;stroke-opacity:1"
                         d="M 0,0 H -0.5" /></g></g></g></g></g></g></g><g
           transform="translate(118.6622,151.7523)"
           id="g452"><path
             id="path454"
             style="fill:none;stroke:#4b953f;stroke-width:1;stroke-linecap:butt;stroke-linejoin:miter;stroke-miterlimit:10;stroke-dasharray:none;stroke-opacity:1"
             d="M 0,0 V -6.229" /></g><g
           transform="translate(115.5477,148.6377)"
           id="g456"><path
             id="path458"
             style="fill:none;stroke:#4b953f;stroke-width:1;stroke-linecap:butt;stroke-linejoin:miter;stroke-miterlimit:10;stroke-dasharray:none;stroke-opacity:1"
             d="M 0,0 H 6.229" /></g><g
           transform="translate(186.9433,165.0972)"
           id="g460"><path
             id="path462"
             style="fill:#4b953f;fill-opacity:1;fill-rule:nonzero;stroke:none"
             d="m 0,0 c 0,-0.874 -0.708,-1.582 -1.582,-1.582 -0.873,0 -1.582,0.708 -1.582,1.582 0,0.874 0.709,1.582 1.582,1.582 C -0.708,1.582 0,0.874 0,0" /></g><g
           transform="translate(82.018,184.8199)"
           id="g464"><path
             id="path466"
             style="fill:#050606;fill-opacity:1;fill-rule:nonzero;stroke:none"
             d="m 0,0 -1.244,-1.253 0.152,-0.138 1.082,0.949 1.093,-0.949 0.152,0.138 z" /></g><g
           transform="translate(82.3498,178.9607)"
           id="g468"><path
             id="path470"
             style="fill:#050606;fill-opacity:1;fill-rule:nonzero;stroke:none"
             d="m 0,0 c 0.123,-0.516 0.579,-0.626 0.807,-0.626 0.304,0 0.532,0.193 0.684,0.506 0.162,0.332 0.285,0.875 0.285,0.903 0,0.046 -0.038,0.083 -0.095,0.083 C 1.596,0.866 1.586,0.82 1.548,0.682 1.377,0.046 1.206,-0.442 0.826,-0.442 c -0.285,0 -0.285,0.304 -0.285,0.424 0,0.211 0.029,0.304 0.124,0.691 0.066,0.248 0.133,0.497 0.19,0.755 L 1.244,2.93 c 0.067,0.23 0.067,0.248 0.067,0.276 0,0.138 -0.114,0.23 -0.257,0.23 -0.275,0 -0.342,-0.23 -0.399,-0.46 -0.095,-0.36 -0.608,-2.34 -0.674,-2.663 -0.009,0 -0.38,-0.755 -1.073,-0.755 -0.494,0 -0.589,0.414 -0.589,0.755 0,0.525 0.266,1.262 0.513,1.88 0.114,0.294 0.161,0.414 0.161,0.598 0,0.397 -0.294,0.737 -0.75,0.737 -0.874,0 -1.225,-1.335 -1.225,-1.409 0,-0.037 0.038,-0.083 0.104,-0.083 0.086,0 0.095,0.037 0.133,0.166 0.228,0.792 0.599,1.142 0.96,1.142 0.094,0 0.246,-0.009 0.246,-0.304 0,-0.239 -0.104,-0.507 -0.246,-0.857 -0.418,-1.096 -0.466,-1.446 -0.466,-1.722 0,-0.94 0.731,-1.087 1.121,-1.087 0.608,0 0.94,0.405 1.13,0.626" /></g><g
           transform="translate(85.7838,179.4888)"
           id="g472"><path
             id="path474"
             style="fill:#050606;fill-opacity:1;fill-rule:nonzero;stroke:none"
             d="m 0,0 h 0.62 c 0.121,0 0.197,0 0.197,0.117 0,0.086 -0.083,0.086 -0.19,0.086 H 0.051 l 0.228,0.872 c 0.025,0.092 0.025,0.123 0.025,0.129 0,0.129 -0.101,0.19 -0.209,0.19 -0.215,0 -0.26,-0.166 -0.329,-0.442 L -0.431,0.203 h -0.607 c -0.121,0 -0.203,0 -0.203,-0.117 C -1.241,0 -1.159,0 -1.051,0 h 0.57 l -0.38,-1.474 c -0.038,-0.154 -0.095,-0.369 -0.095,-0.455 0,-0.368 0.31,-0.577 0.646,-0.577 0.677,0 1.063,0.866 1.063,0.94 0,0.067 -0.057,0.08 -0.095,0.08 -0.069,0 -0.075,-0.025 -0.12,-0.117 -0.126,-0.295 -0.443,-0.731 -0.829,-0.731 -0.133,0 -0.209,0.086 -0.209,0.289 0,0.116 0.019,0.184 0.038,0.264 z" /></g><g
           transform="translate(90.3159,176.1877)"
           id="g476"><path
             id="path478"
             style="fill:#050606;fill-opacity:1;fill-rule:nonzero;stroke:none"
             d="m 0,0 c 0,0.028 0,0.046 -0.161,0.203 -0.95,0.93 -1.482,2.45 -1.482,4.33 0,1.787 0.446,3.325 1.548,4.412 C 0,9.028 0,9.047 0,9.074 0,9.13 -0.047,9.148 -0.085,9.148 c -0.124,0 -0.903,-0.663 -1.368,-1.566 -0.484,-0.93 -0.703,-1.916 -0.703,-3.049 0,-0.82 0.133,-1.917 0.627,-2.902 0.56,-1.106 1.339,-1.705 1.444,-1.705 C -0.047,-0.074 0,-0.055 0,0" /></g><g
           transform="translate(94.5644,178.6935)"
           id="g480"><path
             id="path482"
             style="fill:#050606;fill-opacity:1;fill-rule:nonzero;stroke:none"
             d="m 0,0 h -1.282 c -0.133,0 -0.152,0 -0.209,0.009 -0.105,0.009 -0.114,0.028 -0.114,0.102 0,0.064 0.019,0.119 0.038,0.202 l 0.665,2.598 H 0.883 C 2.004,2.911 2.004,1.898 2.004,1.824 2.004,0.94 1.178,0 0,0 m 1.349,3.022 c 1.035,0.184 1.975,0.884 1.975,1.732 0,0.718 -0.655,1.271 -1.728,1.271 h -3.049 c -0.181,0 -0.266,0 -0.266,-0.175 0,-0.092 0.085,-0.092 0.228,-0.092 0.579,0 0.579,-0.074 0.579,-0.175 0,-0.019 0,-0.074 -0.038,-0.212 L -2.232,0.415 C -2.317,0.092 -2.336,0 -3.001,0 c -0.181,0 -0.276,0 -0.276,-0.166 0,-0.101 0.057,-0.101 0.247,-0.101 h 3.258 c 1.453,0 2.574,1.068 2.574,1.999 0,0.755 -0.684,1.216 -1.453,1.29 m -1.605,2.377 c 0.085,0.34 0.123,0.359 0.493,0.359 h 1.235 c 1.073,0 1.073,-0.885 1.073,-0.967 0,-0.747 -0.769,-1.696 -2.023,-1.696 h -1.367 z" /></g><g
           transform="translate(101.0277,180.7203)"
           id="g484"><path
             id="path486"
             style="fill:#050606;fill-opacity:1;fill-rule:nonzero;stroke:none"
             d="m 0,0 c 0,0.7 -0.095,1.843 -0.627,2.911 -0.56,1.106 -1.339,1.705 -1.443,1.705 -0.038,0 -0.086,-0.019 -0.086,-0.074 0,-0.028 0,-0.046 0.162,-0.203 0.949,-0.93 1.481,-2.45 1.481,-4.33 0,-1.787 -0.446,-3.326 -1.548,-4.413 -0.095,-0.083 -0.095,-0.101 -0.095,-0.129 0,-0.055 0.048,-0.073 0.086,-0.073 0.123,0 0.902,0.663 1.367,1.566 C -0.218,-2.1 0,-1.106 0,0" /></g><g
           transform="translate(85.578,156.6663)"
           id="g488"><path
             id="path490"
             style="fill:#050606;fill-opacity:1;fill-rule:nonzero;stroke:none"
             d="m 0,0 c 0,0.165 0,0.172 -0.143,0.172 -0.172,-0.193 -0.529,-0.458 -1.266,-0.458 v -0.208 c 0.164,0 0.522,0 0.915,0.186 v -3.727 c 0,-0.257 -0.021,-0.343 -0.651,-0.343 h -0.221 v -0.208 c 0.193,0.015 0.887,0.015 1.123,0.015 0.236,0 0.923,0 1.116,-0.015 v 0.208 H 0.651 C 0.021,-4.378 0,-4.292 0,-4.035 Z" /></g><path
           id="path492"
           style="fill:#050606;fill-opacity:1;fill-rule:nonzero;stroke:none"
           d="m 77.093,149.173 h 16.351 v -0.286 H 77.093 Z" /><g
           transform="translate(80.076,146.6976)"
           id="g494"><path
             id="path496"
             style="fill:#050606;fill-opacity:1;fill-rule:nonzero;stroke:none"
             d="m 0,0 c 0.043,0.172 0.057,0.236 0.165,0.265 0.057,0.014 0.293,0.014 0.443,0.014 0.715,0 1.052,-0.029 1.052,-0.587 0,-0.107 -0.029,-0.379 -0.072,-0.643 L 1.581,-1.037 c 0,-0.029 0.029,-0.072 0.072,-0.072 0.071,0 0.071,0.036 0.093,0.15 l 0.207,1.267 c 0.014,0.064 0.014,0.078 0.014,0.1 0,0.078 -0.043,0.078 -0.186,0.078 h -3.913 c -0.164,0 -0.172,-0.007 -0.214,-0.135 l -0.437,-1.288 c -0.007,-0.014 -0.028,-0.093 -0.028,-0.1 0,-0.036 0.028,-0.072 0.071,-0.072 0.057,0 0.072,0.029 0.1,0.122 0.301,0.865 0.451,1.266 1.402,1.266 h 0.48 c 0.171,0 0.243,0 0.243,-0.079 0,-0.021 0,-0.035 -0.036,-0.164 l -0.958,-3.842 c -0.072,-0.279 -0.086,-0.35 -0.845,-0.35 -0.178,0 -0.229,0 -0.229,-0.136 0,-0.072 0.079,-0.072 0.115,-0.072 0.179,0 0.365,0.015 0.544,0.015 h 1.116 c 0.178,0 0.372,-0.015 0.55,-0.015 0.079,0 0.151,0 0.151,0.136 0,0.072 -0.05,0.072 -0.236,0.072 -0.644,0 -0.644,0.064 -0.644,0.171 0,0.008 0,0.058 0.028,0.172 z" /></g><g
           transform="translate(88.4601,143.9792)"
           id="g498"><path
             id="path500"
             style="fill:#050606;fill-opacity:1;fill-rule:nonzero;stroke:none"
             d="M 0,0 C 0.122,0 0.25,0 0.25,0.143 0.25,0.286 0.122,0.286 0,0.286 h -3.87 c -0.122,0 -0.251,0 -0.251,-0.143 C -4.121,0 -3.992,0 -3.87,0 Z" /></g><g
           transform="translate(92.317,145.2097)"
           id="g502"><path
             id="path504"
             style="fill:#050606;fill-opacity:1;fill-rule:nonzero;stroke:none"
             d="m 0,0 h 0.658 c 0.136,0 0.208,0 0.208,0.129 0,0.078 -0.043,0.078 -0.186,0.078 H 0.05 l 0.265,1.045 c 0.028,0.1 0.028,0.114 0.028,0.164 0,0.115 -0.093,0.179 -0.186,0.179 -0.057,0 -0.221,-0.021 -0.279,-0.25 L -0.401,0.207 h -0.672 c -0.143,0 -0.208,0 -0.208,-0.135 C -1.281,0 -1.23,0 -1.095,0 h 0.637 L -0.93,-1.889 c -0.057,-0.25 -0.079,-0.322 -0.079,-0.415 0,-0.336 0.236,-0.643 0.637,-0.643 0.723,0 1.109,1.044 1.109,1.094 0,0.043 -0.029,0.065 -0.072,0.065 -0.014,0 -0.043,0 -0.057,-0.029 -0.007,-0.007 -0.014,-0.014 -0.064,-0.129 -0.151,-0.358 -0.48,-0.858 -0.895,-0.858 -0.214,0 -0.228,0.179 -0.228,0.336 0,0.007 0,0.143 0.021,0.229 z" /></g><g
           transform="translate(96.806,152.4459)"
           id="g506"><path
             id="path508"
             style="fill:#050606;fill-opacity:1;fill-rule:nonzero;stroke:none"
             d="m 0,0 -1.079,-1.12 0.132,-0.124 0.939,0.849 0.947,-0.849 0.132,0.124 z" /></g><g
           transform="translate(97.0938,147.2081)"
           id="g510"><path
             id="path512"
             style="fill:#050606;fill-opacity:1;fill-rule:nonzero;stroke:none"
             d="m 0,0 c 0.107,-0.461 0.502,-0.56 0.7,-0.56 0.264,0 0.461,0.173 0.593,0.453 C 1.433,0.189 1.54,0.675 1.54,0.7 1.54,0.741 1.507,0.774 1.458,0.774 1.384,0.774 1.375,0.733 1.342,0.609 1.194,0.041 1.046,-0.395 0.716,-0.395 c -0.247,0 -0.247,0.271 -0.247,0.379 0,0.189 0.025,0.271 0.107,0.617 0.058,0.223 0.116,0.445 0.165,0.676 L 1.079,2.619 C 1.137,2.825 1.137,2.841 1.137,2.866 1.137,2.99 1.038,3.072 0.914,3.072 0.675,3.072 0.618,2.866 0.568,2.66 0.486,2.339 0.041,0.568 -0.016,0.28 c -0.009,0 -0.33,-0.675 -0.931,-0.675 -0.428,0 -0.511,0.37 -0.511,0.675 0,0.469 0.231,1.128 0.445,1.68 0.099,0.264 0.14,0.371 0.14,0.535 0,0.355 -0.255,0.659 -0.651,0.659 -0.757,0 -1.062,-1.194 -1.062,-1.26 0,-0.033 0.033,-0.074 0.091,-0.074 0.074,0 0.082,0.033 0.115,0.148 0.198,0.709 0.519,1.022 0.832,1.022 0.082,0 0.214,-0.009 0.214,-0.272 0,-0.214 -0.091,-0.453 -0.214,-0.766 -0.363,-0.98 -0.404,-1.293 -0.404,-1.54 0,-0.84 0.634,-0.972 0.972,-0.972 0.527,0 0.815,0.362 0.98,0.56" /></g><g
           transform="translate(101.125,150.8555)"
           id="g514"><path
             id="path516"
             style="fill:#050606;fill-opacity:1;fill-rule:nonzero;stroke:none"
             d="m 0,0 c 0.049,-0.033 0.066,-0.033 0.093,-0.033 0.088,0 0.165,0.071 0.165,0.17 0,0.105 -0.055,0.127 -0.137,0.165 -0.368,0.17 -0.5,0.231 -0.769,0.34 l 0.643,0.291 c 0.043,0.017 0.148,0.066 0.192,0.083 0.055,0.033 0.071,0.088 0.071,0.137 0,0.066 -0.033,0.17 -0.198,0.17 l -0.79,-0.538 0.077,0.813 c 0.011,0.093 0,0.23 -0.16,0.23 -0.098,0 -0.175,-0.082 -0.159,-0.159 V 1.603 l 0.077,-0.818 -0.73,0.505 c -0.05,0.033 -0.066,0.033 -0.093,0.033 -0.088,0 -0.165,-0.071 -0.165,-0.17 0,-0.104 0.055,-0.126 0.137,-0.165 0.368,-0.17 0.5,-0.23 0.769,-0.34 L -1.62,0.357 C -1.664,0.34 -1.768,0.291 -1.812,0.275 -1.867,0.242 -1.883,0.187 -1.883,0.137 c 0,-0.099 0.077,-0.17 0.165,-0.17 0.043,0 0.054,0 0.192,0.099 l 0.631,0.439 -0.082,-0.884 c 0,-0.11 0.093,-0.159 0.164,-0.159 0.072,0 0.165,0.049 0.165,0.159 0,0.055 -0.022,0.231 -0.027,0.297 -0.022,0.186 -0.039,0.395 -0.055,0.587 z" /></g><g
           transform="translate(97.7324,168.6803)"
           id="g518"><path
             id="path520"
             style="fill:#050606;fill-opacity:1;fill-rule:nonzero;stroke:none"
             d="m 0,0 -1.079,-1.12 0.132,-0.124 0.939,0.849 0.947,-0.849 0.132,0.124 z" /></g><g
           transform="translate(98.0201,163.4425)"
           id="g522"><path
             id="path524"
             style="fill:#050606;fill-opacity:1;fill-rule:nonzero;stroke:none"
             d="m 0,0 c 0.107,-0.461 0.502,-0.56 0.7,-0.56 0.264,0 0.461,0.173 0.593,0.453 C 1.433,0.189 1.54,0.675 1.54,0.7 1.54,0.741 1.507,0.774 1.458,0.774 1.384,0.774 1.375,0.733 1.342,0.609 1.194,0.041 1.046,-0.395 0.716,-0.395 c -0.247,0 -0.247,0.271 -0.247,0.379 0,0.189 0.025,0.271 0.107,0.617 0.058,0.223 0.116,0.445 0.165,0.676 L 1.079,2.619 C 1.137,2.825 1.137,2.841 1.137,2.866 1.137,2.99 1.038,3.072 0.914,3.072 0.675,3.072 0.618,2.866 0.568,2.66 0.486,2.339 0.041,0.568 -0.016,0.28 c -0.009,0 -0.33,-0.675 -0.931,-0.675 -0.428,0 -0.511,0.37 -0.511,0.675 0,0.469 0.231,1.128 0.445,1.68 0.099,0.264 0.14,0.371 0.14,0.535 0,0.355 -0.255,0.659 -0.651,0.659 -0.757,0 -1.062,-1.194 -1.062,-1.26 0,-0.033 0.033,-0.074 0.091,-0.074 0.074,0 0.082,0.033 0.115,0.148 0.198,0.709 0.519,1.022 0.832,1.022 0.082,0 0.214,-0.009 0.214,-0.272 0,-0.214 -0.091,-0.453 -0.214,-0.766 -0.363,-0.98 -0.404,-1.293 -0.404,-1.54 0,-0.84 0.634,-0.972 0.972,-0.972 0.527,0 0.815,0.362 0.98,0.56" /></g><g
           transform="translate(102.0513,167.0899)"
           id="g526"><path
             id="path528"
             style="fill:#050606;fill-opacity:1;fill-rule:nonzero;stroke:none"
             d="m 0,0 c 0.049,-0.033 0.066,-0.033 0.093,-0.033 0.088,0 0.165,0.071 0.165,0.17 0,0.105 -0.055,0.127 -0.137,0.165 -0.368,0.17 -0.5,0.231 -0.769,0.34 l 0.643,0.291 c 0.043,0.017 0.148,0.066 0.192,0.083 0.055,0.033 0.071,0.088 0.071,0.137 0,0.066 -0.033,0.17 -0.198,0.17 l -0.79,-0.538 0.077,0.813 c 0.011,0.093 0,0.23 -0.16,0.23 -0.098,0 -0.175,-0.082 -0.159,-0.159 V 1.603 l 0.077,-0.818 -0.73,0.505 c -0.05,0.033 -0.066,0.033 -0.093,0.033 -0.088,0 -0.165,-0.071 -0.165,-0.17 0,-0.104 0.055,-0.126 0.137,-0.165 0.368,-0.17 0.5,-0.23 0.769,-0.34 L -1.62,0.357 C -1.664,0.34 -1.768,0.291 -1.812,0.275 -1.867,0.242 -1.883,0.187 -1.883,0.137 c 0,-0.099 0.077,-0.17 0.165,-0.17 0.043,0 0.054,0 0.192,0.099 l 0.631,0.439 -0.082,-0.884 c 0,-0.11 0.093,-0.159 0.164,-0.159 0.072,0 0.165,0.049 0.165,0.159 0,0.055 -0.022,0.231 -0.027,0.297 -0.022,0.186 -0.039,0.395 -0.055,0.587 z" /></g><g
           transform="translate(175.353,102.5825)"
           id="g530"><path
             id="path532"
             style="fill:#050606;fill-opacity:1;fill-rule:nonzero;stroke:none"
             d="m 0,0 c -0.111,0.261 -0.382,0.664 -0.905,0.664 -1.137,0 -2.364,-1.469 -2.364,-2.957 0,-0.996 0.584,-1.579 1.268,-1.579 0.553,0 1.025,0.432 1.307,0.764 0.101,-0.593 0.573,-0.764 0.875,-0.764 0.302,0 0.543,0.181 0.724,0.543 0.161,0.342 0.302,0.956 0.302,0.996 0,0.05 -0.04,0.09 -0.101,0.09 -0.09,0 -0.1,-0.05 -0.141,-0.201 -0.15,-0.593 -0.341,-1.227 -0.754,-1.227 -0.291,0 -0.312,0.262 -0.312,0.463 0,0.231 0.031,0.342 0.121,0.734 0.071,0.251 0.121,0.473 0.201,0.764 0.372,1.509 0.463,1.871 0.463,1.931 0,0.141 -0.111,0.252 -0.262,0.252 C 0.101,0.473 0.02,0.121 0,0 m -0.644,-2.575 c -0.05,-0.171 -0.05,-0.191 -0.191,-0.382 -0.221,-0.281 -0.664,-0.714 -1.136,-0.714 -0.413,0 -0.644,0.372 -0.644,0.966 0,0.553 0.312,1.679 0.503,2.102 0.342,0.704 0.815,1.066 1.207,1.066 0.664,0 0.794,-0.825 0.794,-0.906 0,-0.01 -0.03,-0.14 -0.04,-0.16 z" /></g><g
           transform="translate(180.7444,102.9244)"
           id="g534"><path
             id="path536"
             style="fill:#050606;fill-opacity:1;fill-rule:nonzero;stroke:none"
             d="m 0,0 c -0.312,-0.06 -0.473,-0.282 -0.473,-0.503 0,-0.241 0.191,-0.322 0.332,-0.322 0.282,0 0.513,0.242 0.513,0.543 0,0.322 -0.312,0.604 -0.815,0.604 -0.402,0 -0.864,-0.181 -1.287,-0.795 -0.07,0.533 -0.473,0.795 -0.875,0.795 -0.392,0 -0.593,-0.302 -0.714,-0.523 -0.171,-0.362 -0.322,-0.966 -0.322,-1.016 0,-0.04 0.041,-0.09 0.111,-0.09 0.08,0 0.09,0.01 0.151,0.241 0.151,0.603 0.342,1.187 0.744,1.187 0.241,0 0.312,-0.171 0.312,-0.463 0,-0.221 -0.101,-0.613 -0.171,-0.925 l -0.282,-1.086 c -0.04,-0.191 -0.151,-0.644 -0.201,-0.825 -0.07,-0.262 -0.181,-0.734 -0.181,-0.785 0,-0.14 0.111,-0.251 0.262,-0.251 0.11,0 0.301,0.07 0.362,0.272 0.03,0.08 0.402,1.599 0.462,1.83 0.051,0.221 0.111,0.432 0.161,0.654 0.04,0.141 0.081,0.301 0.111,0.432 0.03,0.091 0.301,0.583 0.553,0.805 0.121,0.11 0.382,0.342 0.794,0.342 C -0.292,0.121 -0.131,0.091 0,0" /></g><g
           transform="translate(185.55,102.5825)"
           id="g538"><path
             id="path540"
             style="fill:#050606;fill-opacity:1;fill-rule:nonzero;stroke:none"
             d="m 0,0 c -0.131,0.292 -0.412,0.664 -0.915,0.664 -1.096,0 -2.344,-1.378 -2.344,-2.877 0,-1.046 0.634,-1.558 1.278,-1.558 0.533,0 1.005,0.422 1.186,0.623 l -0.221,-0.905 c -0.141,-0.553 -0.201,-0.805 -0.563,-1.157 -0.412,-0.412 -0.795,-0.412 -1.016,-0.412 -0.301,0 -0.553,0.02 -0.804,0.101 0.322,0.09 0.402,0.372 0.402,0.482 0,0.161 -0.121,0.322 -0.342,0.322 -0.241,0 -0.503,-0.201 -0.503,-0.533 0,-0.412 0.412,-0.573 1.267,-0.573 1.298,0 1.972,0.835 2.102,1.378 L 0.644,0.06 c 0.03,0.121 0.03,0.141 0.03,0.161 0,0.141 -0.111,0.252 -0.262,0.252 C 0.171,0.473 0.03,0.272 0,0 m -0.624,-2.494 c -0.04,-0.161 -0.06,-0.201 -0.191,-0.352 -0.412,-0.533 -0.834,-0.724 -1.146,-0.724 -0.332,0 -0.644,0.261 -0.644,0.955 0,0.533 0.302,1.66 0.523,2.112 0.292,0.563 0.744,0.966 1.167,0.966 0.664,0 0.794,-0.825 0.794,-0.885 l -0.03,-0.141 z" /></g><g
           transform="translate(190.3331,101.7578)"
           id="g542"><path
             id="path544"
             style="fill:#050606;fill-opacity:1;fill-rule:nonzero;stroke:none"
             d="m 0,0 c 0.02,0.06 0.272,0.563 0.644,0.885 0.261,0.241 0.603,0.402 0.995,0.402 0.403,0 0.543,-0.301 0.543,-0.704 0,-0.06 0,-0.261 -0.12,-0.734 L 1.81,-1.187 C 1.73,-1.488 1.539,-2.233 1.519,-2.343 1.478,-2.494 1.418,-2.756 1.418,-2.796 c 0,-0.141 0.111,-0.251 0.262,-0.251 0.301,0 0.352,0.231 0.442,0.593 l 0.604,2.404 c 0.02,0.08 0.543,1.337 1.649,1.337 0.402,0 0.543,-0.301 0.543,-0.704 0,-0.563 -0.392,-1.659 -0.614,-2.263 -0.09,-0.241 -0.14,-0.372 -0.14,-0.553 0,-0.452 0.311,-0.814 0.794,-0.814 0.936,0 1.288,1.478 1.288,1.538 0,0.051 -0.041,0.091 -0.101,0.091 -0.091,0 -0.101,-0.03 -0.151,-0.201 -0.231,-0.805 -0.603,-1.227 -1.006,-1.227 -0.1,0 -0.261,0.01 -0.261,0.332 0,0.261 0.121,0.583 0.161,0.694 0.181,0.482 0.633,1.669 0.633,2.252 0,0.604 -0.352,1.056 -1.116,1.056 C 3.731,1.488 3.188,1.106 2.786,0.513 2.756,1.056 2.424,1.488 1.669,1.488 0.774,1.488 0.302,0.855 0.121,0.603 0.091,1.177 -0.322,1.488 -0.764,1.488 -1.056,1.488 -1.287,1.348 -1.478,0.965 -1.659,0.603 -1.8,-0.01 -1.8,-0.05 c 0,-0.04 0.04,-0.091 0.11,-0.091 0.081,0 0.091,0.01 0.151,0.242 0.151,0.593 0.342,1.186 0.744,1.186 0.232,0 0.312,-0.161 0.312,-0.462 0,-0.222 -0.1,-0.614 -0.171,-0.926 l -0.281,-1.086 c -0.041,-0.191 -0.151,-0.643 -0.201,-0.824 -0.071,-0.262 -0.181,-0.735 -0.181,-0.785 0,-0.141 0.11,-0.251 0.261,-0.251 0.121,0 0.261,0.06 0.342,0.211 0.02,0.05 0.111,0.402 0.161,0.603 l 0.221,0.905 z" /></g><g
           transform="translate(199.6085,105.0867)"
           id="g546"><path
             id="path548"
             style="fill:#050606;fill-opacity:1;fill-rule:nonzero;stroke:none"
             d="m 0,0 c 0,0.151 -0.121,0.332 -0.342,0.332 -0.231,0 -0.493,-0.221 -0.493,-0.483 0,-0.251 0.211,-0.332 0.332,-0.332 C -0.231,-0.483 0,-0.221 0,0 m 0.08,-4.838 c 0,0.051 -0.04,0.091 -0.1,0.091 -0.091,0 -0.101,-0.03 -0.151,-0.201 -0.261,-0.915 -0.674,-1.227 -1.006,-1.227 -0.12,0 -0.261,0.03 -0.261,0.332 0,0.271 0.121,0.573 0.231,0.875 l 0.704,1.87 c 0.03,0.081 0.101,0.262 0.101,0.453 0,0.422 -0.302,0.805 -0.795,0.805 -0.925,0 -1.297,-1.459 -1.297,-1.539 0,-0.04 0.04,-0.091 0.11,-0.091 0.091,0 0.101,0.04 0.141,0.181 0.242,0.845 0.624,1.247 1.016,1.247 0.091,0 0.262,-0.01 0.262,-0.331 0,-0.262 -0.131,-0.594 -0.212,-0.815 l -0.704,-1.871 c -0.06,-0.161 -0.12,-0.322 -0.12,-0.503 0,-0.452 0.311,-0.814 0.794,-0.814 0.925,0 1.287,1.468 1.287,1.538" /></g><g
           transform="translate(202.2619,101.7578)"
           id="g550"><path
             id="path552"
             style="fill:#050606;fill-opacity:1;fill-rule:nonzero;stroke:none"
             d="M 0,0 C 0.02,0.06 0.272,0.563 0.644,0.885 0.905,1.126 1.247,1.287 1.639,1.287 2.042,1.287 2.182,0.986 2.182,0.583 2.182,0.01 1.77,-1.136 1.569,-1.68 1.478,-1.921 1.428,-2.052 1.428,-2.233 c 0,-0.452 0.312,-0.814 0.795,-0.814 0.935,0 1.287,1.478 1.287,1.538 0,0.051 -0.04,0.091 -0.101,0.091 -0.09,0 -0.1,-0.03 -0.15,-0.201 -0.232,-0.825 -0.614,-1.227 -1.006,-1.227 -0.101,0 -0.262,0.01 -0.262,0.332 0,0.251 0.111,0.553 0.171,0.694 0.201,0.553 0.624,1.679 0.624,2.252 0,0.604 -0.352,1.056 -1.117,1.056 -0.895,0 -1.367,-0.633 -1.548,-0.885 -0.03,0.574 -0.443,0.885 -0.885,0.885 -0.322,0 -0.543,-0.191 -0.714,-0.533 C -1.659,0.593 -1.8,-0.01 -1.8,-0.05 c 0,-0.04 0.04,-0.091 0.11,-0.091 0.081,0 0.091,0.01 0.151,0.242 0.161,0.613 0.342,1.186 0.744,1.186 0.232,0 0.312,-0.161 0.312,-0.462 0,-0.222 -0.1,-0.614 -0.171,-0.926 l -0.281,-1.086 c -0.041,-0.191 -0.151,-0.643 -0.201,-0.824 -0.071,-0.262 -0.181,-0.735 -0.181,-0.785 0,-0.141 0.11,-0.251 0.261,-0.251 0.121,0 0.261,0.06 0.342,0.211 0.02,0.05 0.111,0.402 0.161,0.603 l 0.221,0.905 z" /></g><g
           transform="translate(172.3701,89.6863)"
           id="g554"><path
             id="path556"
             style="fill:#050606;fill-opacity:1;fill-rule:nonzero;stroke:none"
             d="m 0,0 c 0.054,0 0.134,0 0.134,0.08 0,0.027 -0.007,0.034 -0.094,0.121 -0.918,0.865 -1.146,2.112 -1.146,3.151 0,1.931 0.798,2.837 1.14,3.145 0.093,0.087 0.1,0.094 0.1,0.127 0,0.034 -0.027,0.081 -0.094,0.081 -0.107,0 -0.442,-0.342 -0.496,-0.402 C -1.354,5.364 -1.542,4.157 -1.542,3.352 -1.542,1.851 -0.912,0.644 0,0" /></g><g
           transform="translate(181.8897,95.9017)"
           id="g558"><path
             id="path560"
             style="fill:#050606;fill-opacity:1;fill-rule:nonzero;stroke:none"
             d="m 0,0 c 0.007,0.027 0.02,0.067 0.02,0.101 0,0.047 -0.04,0.08 -0.087,0.08 -0.047,0 -0.067,-0.02 -0.121,-0.08 l -0.469,-0.517 c -0.06,0.087 -0.416,0.597 -1.2,0.597 -1.556,0 -3.125,-1.441 -3.125,-2.984 0,-1.166 0.885,-1.877 1.951,-1.877 0.879,0 1.623,0.536 1.985,1.059 0.221,0.329 0.308,0.651 0.308,0.691 0,0.06 -0.04,0.087 -0.1,0.087 -0.081,0 -0.094,-0.033 -0.114,-0.107 -0.282,-0.925 -1.187,-1.509 -1.991,-1.509 -0.684,0 -1.402,0.403 -1.402,1.428 0,0.215 0.074,1.335 0.818,2.173 0.503,0.563 1.187,0.818 1.717,0.818 0.845,0 1.193,-0.677 1.193,-1.314 0,-0.094 -0.027,-0.222 -0.027,-0.302 0,-0.087 0.087,-0.087 0.114,-0.087 0.087,0 0.101,0.027 0.128,0.147 z" /></g><g
           transform="translate(182.9431,91.4631)"
           id="g562"><path
             id="path564"
             style="fill:#050606;fill-opacity:1;fill-rule:nonzero;stroke:none"
             d="m 0,0 c 0,-0.436 -0.094,-0.818 -0.51,-1.234 -0.026,-0.02 -0.04,-0.033 -0.04,-0.067 0,-0.053 0.054,-0.094 0.101,-0.094 0.08,0 0.637,0.53 0.637,1.315 0,0.429 -0.161,0.724 -0.456,0.724 -0.235,0 -0.369,-0.188 -0.369,-0.369 0,-0.188 0.127,-0.376 0.376,-0.376 C -0.101,-0.101 0,-0.007 0,0" /></g><g
           transform="translate(193.9945,95.9017)"
           id="g566"><path
             id="path568"
             style="fill:#050606;fill-opacity:1;fill-rule:nonzero;stroke:none"
             d="m 0,0 c 0.007,0.027 0.02,0.067 0.02,0.101 0,0.047 -0.04,0.08 -0.087,0.08 -0.047,0 -0.06,-0.013 -0.134,-0.094 C -0.275,0 -0.449,-0.215 -0.523,-0.295 c -0.261,0.382 -0.684,0.476 -1.026,0.476 -0.932,0 -1.73,-0.784 -1.73,-1.549 0,-0.389 0.208,-0.617 0.242,-0.664 0.221,-0.234 0.415,-0.288 0.898,-0.402 0.235,-0.06 0.248,-0.06 0.443,-0.107 0.194,-0.047 0.623,-0.154 0.623,-0.711 0,-0.583 -0.576,-1.207 -1.28,-1.207 -0.436,0 -1.234,0.134 -1.234,0.966 0,0.02 0,0.161 0.04,0.322 l 0.007,0.067 c 0,0.08 -0.074,0.087 -0.101,0.087 -0.087,0 -0.094,-0.027 -0.127,-0.181 l -0.275,-1.093 c -0.027,-0.101 -0.074,-0.282 -0.074,-0.302 0,-0.053 0.04,-0.087 0.087,-0.087 0.047,0 0.054,0.007 0.128,0.094 l 0.322,0.375 c 0.154,-0.201 0.536,-0.469 1.213,-0.469 0.972,0 1.77,0.878 1.77,1.683 0,0.308 -0.1,0.55 -0.281,0.737 -0.201,0.222 -0.423,0.275 -0.738,0.356 -0.194,0.047 -0.456,0.107 -0.61,0.147 -0.201,0.047 -0.577,0.181 -0.577,0.651 0,0.523 0.564,1.086 1.247,1.086 0.604,0 1.02,-0.315 1.02,-1.039 0,-0.161 -0.027,-0.302 -0.027,-0.329 0,-0.08 0.06,-0.094 0.107,-0.094 0.081,0 0.087,0.027 0.114,0.134 z" /></g><g
           transform="translate(196.2582,93.0387)"
           id="g570"><path
             id="path572"
             style="fill:#050606;fill-opacity:1;fill-rule:nonzero;stroke:none"
             d="m 0,0 c 0,0.637 -0.107,1.401 -0.523,2.192 -0.329,0.617 -0.939,1.16 -1.059,1.16 -0.067,0 -0.087,-0.047 -0.087,-0.08 0,-0.027 0,-0.04 0.08,-0.121 C -0.65,2.26 -0.436,1.033 -0.436,0 c 0,-1.924 -0.798,-2.836 -1.14,-3.145 -0.087,-0.087 -0.093,-0.093 -0.093,-0.127 0,-0.033 0.02,-0.08 0.087,-0.08 0.107,0 0.442,0.342 0.496,0.402 C -0.188,-2.011 0,-0.805 0,0" /></g><g
           transform="translate(200.842,92.8845)"
           id="g574"><path
             id="path576"
             style="fill:#050606;fill-opacity:1;fill-rule:nonzero;stroke:none"
             d="M 0,0 C 0.107,0 0.255,0 0.255,0.154 0.255,0.308 0.107,0.308 0,0.308 h -2.99 c 0.087,0.932 0.865,1.643 1.884,1.643 H 0 c 0.107,0 0.255,0 0.255,0.154 C 0.255,2.26 0.107,2.26 0,2.26 h -1.126 c -1.207,0 -2.179,-0.939 -2.179,-2.106 0,-1.173 0.978,-2.105 2.179,-2.105 H 0 c 0.107,0 0.255,0 0.255,0.154 0,0.154 -0.148,0.154 -0.255,0.154 h -1.106 c -1.019,0 -1.797,0.711 -1.884,1.643 z" /></g><g
           transform="translate(205.6276,91.7045)"
           id="g578"><path
             id="path580"
             style="fill:#050606;fill-opacity:1;fill-rule:nonzero;stroke:none"
             d="m 0,0 -2.917,3.855 c -0.067,0.081 -0.067,0.094 -0.14,0.161 H -2.26 L 0,0.965 Z M -3.198,3.647 V 0.375 c 0,-0.355 -0.054,-0.476 -0.396,-0.482 -0.074,0 -0.188,-0.007 -0.188,-0.114 0,-0.121 0.108,-0.121 0.228,-0.121 h 1.04 c 0.12,0 0.221,0 0.221,0.121 0,0.107 -0.107,0.114 -0.201,0.114 -0.369,0.006 -0.423,0.147 -0.423,0.496 V 3.46 l 2.897,-3.829 c 0.06,-0.08 0.094,-0.1 0.141,-0.1 0.114,0 0.114,0.107 0.114,0.221 V 3.54 c 0,0.376 0.06,0.469 0.368,0.476 0.041,0 0.155,0.007 0.155,0.114 0,0.121 -0.101,0.121 -0.222,0.121 h -0.979 c -0.12,0 -0.227,0 -0.227,-0.121 0,-0.114 0.12,-0.114 0.194,-0.114 0.375,-0.007 0.429,-0.141 0.429,-0.496 V 1.421 L -2.072,4.157 C -2.139,4.251 -2.159,4.251 -2.313,4.251 H -3.48 c -0.12,0 -0.221,0 -0.221,-0.121 0,-0.1 0.101,-0.114 0.141,-0.114 0.181,-0.02 0.308,-0.127 0.375,-0.208 C -3.198,3.755 -3.198,3.741 -3.198,3.647" /></g><g
           transform="translate(209.2076,94.2118)"
           id="g582"><path
             id="path584"
             style="fill:#050606;fill-opacity:1;fill-rule:nonzero;stroke:none"
             d="m 0,0 h -0.186 c -0.01,-0.07 -0.06,-0.402 -0.136,-0.458 -0.035,-0.03 -0.442,-0.03 -0.513,-0.03 h -0.94 l 0.644,0.523 C -0.96,0.171 -0.513,0.493 -0.357,0.644 -0.206,0.795 0,1.051 0,1.408 c 0,0.629 -0.568,0.996 -1.242,0.996 -0.649,0 -1.101,-0.428 -1.101,-0.9 0,-0.257 0.216,-0.287 0.271,-0.287 0.126,0 0.272,0.09 0.272,0.271 0,0.111 -0.066,0.272 -0.287,0.272 0.116,0.256 0.423,0.448 0.77,0.448 0.528,0 0.809,-0.393 0.809,-0.8 0,-0.357 -0.236,-0.724 -0.588,-1.046 l -1.192,-1.091 c -0.05,-0.05 -0.055,-0.055 -0.055,-0.211 h 2.187 z" /></g><g
           transform="translate(186.7499,95.5867)"
           id="g586"><path
             id="path588"
             style="fill:#050606;fill-opacity:1;fill-rule:nonzero;stroke:none"
             d="M 0,0 1.931,-3.911 H -1.924 Z M 0.382,0.523 C 0.332,0.622 0.318,0.651 0.219,0.651 0.113,0.651 0.099,0.622 0.049,0.523 l -2.362,-4.78 c -0.014,-0.022 -0.028,-0.064 -0.028,-0.092 0,-0.043 0.007,-0.05 0.149,-0.05 h 4.816 c 0.141,0 0.148,0.007 0.148,0.05 0,0.028 -0.014,0.07 -0.028,0.092 z" /></g><g
           transform="translate(174.4252,95.5867)"
           id="g590"><path
             id="path592"
             style="fill:#050606;fill-opacity:1;fill-rule:nonzero;stroke:none"
             d="M 0,0 1.931,-3.911 H -1.924 Z M 0.382,0.523 C 0.332,0.622 0.318,0.651 0.219,0.651 0.113,0.651 0.099,0.622 0.049,0.523 l -2.362,-4.78 c -0.014,-0.022 -0.028,-0.064 -0.028,-0.092 0,-0.043 0.007,-0.05 0.149,-0.05 h 4.816 c 0.141,0 0.148,0.007 0.148,0.05 0,0.028 -0.014,0.07 -0.028,0.092 z" /></g><g
           transform="translate(211.6889,99.93)"
           id="g594"><path
             id="path596"
             style="fill:#050606;fill-opacity:1;fill-rule:nonzero;stroke:none"
             d="m 0,0 c -0.673,-0.604 -1.278,-0.673 -1.545,-0.673 -0.543,0 -0.696,0.482 -0.696,0.841 0,0.329 0.168,1.11 0.405,1.53 0.314,0.536 0.742,0.773 1.086,0.773 0.742,0 0.742,-0.972 0.742,-1.614 0,-0.191 -0.007,-0.39 -0.007,-0.582 C -0.015,0.122 -0.008,0.084 0,0 m 0.482,1.186 c 0,0.742 -0.421,1.438 -1.232,1.438 -1.002,0 -2.004,-1.094 -2.004,-2.18 0,-0.666 0.413,-1.27 1.193,-1.27 0.475,0 1.041,0.183 1.584,0.642 0.107,-0.428 0.344,-0.642 0.673,-0.642 0.413,0 0.62,0.428 0.62,0.528 0,0.068 -0.054,0.068 -0.077,0.068 -0.061,0 -0.069,-0.022 -0.092,-0.084 -0.068,-0.191 -0.244,-0.359 -0.428,-0.359 -0.237,0 -0.237,0.489 -0.237,0.956 0.78,0.933 0.964,1.897 0.964,1.905 0,0.069 -0.061,0.069 -0.084,0.069 C 1.293,2.257 1.285,2.234 1.255,2.096 1.155,1.759 0.956,1.163 0.482,0.535 Z" /></g><g
           transform="translate(215.4609,99.9861)"
           id="g598"><path
             id="path600"
             style="fill:#050606;fill-opacity:1;fill-rule:nonzero;stroke:none"
             d="m 0,0 c -0.209,-0.025 -0.275,-0.184 -0.275,-0.286 0,-0.147 0.132,-0.188 0.198,-0.188 0.026,0 0.286,0.02 0.286,0.331 0,0.311 -0.337,0.439 -0.643,0.439 -0.724,0 -1.427,-0.704 -1.427,-1.418 0,-0.484 0.331,-0.882 0.897,-0.882 0.806,0 1.229,0.515 1.229,0.581 0,0.046 -0.051,0.082 -0.081,0.082 -0.031,0 -0.046,-0.016 -0.072,-0.046 -0.403,-0.474 -0.974,-0.474 -1.066,-0.474 -0.275,0 -0.494,0.168 -0.494,0.555 0,0.225 0.102,0.765 0.341,1.082 0.225,0.285 0.48,0.377 0.679,0.377 C -0.367,0.153 -0.133,0.148 0,0" /></g><g
           transform="translate(218.527,97.3214)"
           id="g602"><path
             id="path604"
             style="fill:#050606;fill-opacity:1;fill-rule:nonzero;stroke:none"
             d="m 0,0 c 0,0.023 0,0.038 -0.13,0.168 -0.765,0.773 -1.193,2.035 -1.193,3.596 0,1.484 0.359,2.761 1.247,3.664 C 0,7.497 0,7.512 0,7.535 c 0,0.046 -0.038,0.061 -0.069,0.061 -0.099,0 -0.727,-0.55 -1.101,-1.3 -0.391,-0.773 -0.567,-1.591 -0.567,-2.532 0,-0.681 0.108,-1.591 0.505,-2.41 0.452,-0.918 1.079,-1.415 1.163,-1.415 C -0.038,-0.061 0,-0.046 0,0" /></g><g
           transform="translate(224.6578,104.497)"
           id="g606"><path
             id="path608"
             style="fill:#050606;fill-opacity:1;fill-rule:nonzero;stroke:none"
             d="m 0,0 c 0,0.069 -0.054,0.069 -0.069,0.069 -0.015,0 -0.046,0 -0.107,-0.077 L -0.704,-0.65 c -0.268,0.459 -0.688,0.719 -1.262,0.719 -1.652,0 -3.366,-1.675 -3.366,-3.473 0,-1.278 0.895,-2.073 2.012,-2.073 0.612,0 1.147,0.26 1.591,0.635 0.666,0.558 0.865,1.3 0.865,1.361 0,0.069 -0.062,0.069 -0.085,0.069 -0.068,0 -0.076,-0.046 -0.091,-0.076 -0.352,-1.194 -1.385,-1.768 -2.15,-1.768 -0.811,0 -1.515,0.521 -1.515,1.607 0,0.245 0.077,1.576 0.941,2.578 0.421,0.49 1.14,0.918 1.867,0.918 0.841,0 1.216,-0.696 1.216,-1.476 0,-0.199 -0.023,-0.368 -0.023,-0.398 0,-0.069 0.077,-0.069 0.1,-0.069 0.084,0 0.091,0.008 0.122,0.145 z" /></g><g
           transform="translate(229.584,100.9475)"
           id="g610"><path
             id="path612"
             style="fill:#050606;fill-opacity:1;fill-rule:nonzero;stroke:none"
             d="m 0,0 h 2.111 c 0.107,0 0.245,0 0.245,0.138 0,0.145 -0.13,0.145 -0.245,0.145 L 0,0.283 v 2.111 c 0,0.108 0,0.245 -0.138,0.245 -0.145,0 -0.145,-0.13 -0.145,-0.245 V 0.283 h -2.111 c -0.108,0 -0.245,0 -0.245,-0.138 C -2.639,0 -2.509,0 -2.394,0 h 2.111 v -2.111 c 0,-0.107 0,-0.245 0.138,-0.245 C 0,-2.356 0,-2.226 0,-2.111 Z" /></g><g
           transform="translate(236.9197,103.9386)"
           id="g614"><path
             id="path616"
             style="fill:#050606;fill-opacity:1;fill-rule:nonzero;stroke:none"
             d="M 0,0 2.088,-4.23 H -2.081 Z M 0.413,0.566 C 0.36,0.673 0.344,0.704 0.237,0.704 0.122,0.704 0.107,0.673 0.054,0.566 l -2.556,-5.171 c -0.015,-0.023 -0.03,-0.069 -0.03,-0.1 0,-0.046 0.008,-0.053 0.161,-0.053 h 5.209 c 0.153,0 0.161,0.007 0.161,0.053 0,0.031 -0.016,0.077 -0.031,0.1 z" /></g><g
           transform="translate(245.9692,104.497)"
           id="g618"><path
             id="path620"
             style="fill:#050606;fill-opacity:1;fill-rule:nonzero;stroke:none"
             d="m 0,0 c 0,0.069 -0.054,0.069 -0.069,0.069 -0.015,0 -0.046,0 -0.107,-0.077 L -0.704,-0.65 c -0.268,0.459 -0.688,0.719 -1.262,0.719 -1.652,0 -3.366,-1.675 -3.366,-3.473 0,-1.278 0.895,-2.073 2.012,-2.073 0.612,0 1.147,0.26 1.591,0.635 0.666,0.558 0.865,1.3 0.865,1.361 0,0.069 -0.062,0.069 -0.085,0.069 -0.068,0 -0.076,-0.046 -0.091,-0.076 -0.352,-1.194 -1.385,-1.768 -2.15,-1.768 -0.811,0 -1.515,0.521 -1.515,1.607 0,0.245 0.077,1.576 0.941,2.578 0.421,0.49 1.14,0.918 1.867,0.918 0.841,0 1.216,-0.696 1.216,-1.476 0,-0.199 -0.023,-0.368 -0.023,-0.398 0,-0.069 0.077,-0.069 0.1,-0.069 0.084,0 0.091,0.008 0.122,0.145 z" /></g><g
           transform="translate(248.3002,101.0852)"
           id="g622"><path
             id="path624"
             style="fill:#050606;fill-opacity:1;fill-rule:nonzero;stroke:none"
             d="m 0,0 c 0,0.581 -0.076,1.53 -0.505,2.417 -0.451,0.918 -1.079,1.416 -1.163,1.416 -0.03,0 -0.069,-0.016 -0.069,-0.062 0,-0.023 0,-0.038 0.131,-0.168 0.765,-0.773 1.193,-2.035 1.193,-3.595 0,-1.484 -0.36,-2.762 -1.247,-3.665 -0.077,-0.069 -0.077,-0.084 -0.077,-0.107 0,-0.046 0.039,-0.061 0.069,-0.061 0.1,0 0.727,0.551 1.102,1.301 C -0.176,-1.744 0,-0.918 0,0" /></g><g
           transform="translate(253.7973,100.9475)"
           id="g626"><path
             id="path628"
             style="fill:#050606;fill-opacity:1;fill-rule:nonzero;stroke:none"
             d="m 0,0 h 2.111 c 0.107,0 0.245,0 0.245,0.138 0,0.145 -0.13,0.145 -0.245,0.145 L 0,0.283 v 2.111 c 0,0.108 0,0.245 -0.138,0.245 -0.145,0 -0.145,-0.13 -0.145,-0.245 V 0.283 h -2.111 c -0.108,0 -0.245,0 -0.245,-0.138 C -2.639,0 -2.509,0 -2.394,0 h 2.111 v -2.111 c 0,-0.107 0,-0.245 0.138,-0.245 C 0,-2.356 0,-2.226 0,-2.111 Z" /></g><g
           transform="translate(261.3089,99.93)"
           id="g630"><path
             id="path632"
             style="fill:#050606;fill-opacity:1;fill-rule:nonzero;stroke:none"
             d="m 0,0 c -0.673,-0.604 -1.278,-0.673 -1.545,-0.673 -0.543,0 -0.696,0.482 -0.696,0.841 0,0.329 0.168,1.11 0.405,1.53 0.314,0.536 0.742,0.773 1.086,0.773 0.742,0 0.742,-0.972 0.742,-1.614 0,-0.191 -0.007,-0.39 -0.007,-0.582 C -0.015,0.122 -0.008,0.084 0,0 m 0.482,1.186 c 0,0.742 -0.421,1.438 -1.232,1.438 -1.002,0 -2.004,-1.094 -2.004,-2.18 0,-0.666 0.413,-1.27 1.193,-1.27 0.475,0 1.041,0.183 1.584,0.642 0.107,-0.428 0.344,-0.642 0.673,-0.642 0.413,0 0.62,0.428 0.62,0.528 0,0.068 -0.054,0.068 -0.077,0.068 -0.061,0 -0.069,-0.022 -0.092,-0.084 -0.068,-0.191 -0.244,-0.359 -0.428,-0.359 -0.237,0 -0.237,0.489 -0.237,0.956 0.78,0.933 0.964,1.897 0.964,1.905 0,0.069 -0.061,0.069 -0.084,0.069 C 1.293,2.257 1.285,2.234 1.255,2.096 1.155,1.759 0.956,1.163 0.482,0.535 Z" /></g><g
           transform="translate(265.0509,99.9504)"
           id="g634"><path
             id="path636"
             style="fill:#050606;fill-opacity:1;fill-rule:nonzero;stroke:none"
             d="m 0,0 c -0.117,-0.02 -0.224,-0.112 -0.224,-0.24 0,-0.091 0.061,-0.158 0.173,-0.158 0.077,0 0.235,0.056 0.235,0.286 0,0.316 -0.332,0.443 -0.648,0.443 -0.683,0 -0.898,-0.484 -0.898,-0.744 0,-0.051 0,-0.235 0.189,-0.377 0.117,-0.092 0.204,-0.108 0.469,-0.159 0.179,-0.035 0.469,-0.086 0.469,-0.351 0,-0.133 -0.096,-0.301 -0.239,-0.398 -0.189,-0.123 -0.439,-0.128 -0.52,-0.128 -0.123,0 -0.47,0.021 -0.597,0.225 0.26,0.01 0.296,0.219 0.296,0.28 0,0.153 -0.138,0.189 -0.199,0.189 -0.082,0 -0.291,-0.061 -0.291,-0.342 0,-0.301 0.316,-0.495 0.791,-0.495 0.887,0 1.076,0.628 1.076,0.842 0,0.459 -0.5,0.556 -0.689,0.592 -0.245,0.045 -0.444,0.081 -0.444,0.295 0,0.092 0.087,0.429 0.582,0.429 C -0.275,0.189 -0.077,0.133 0,0" /></g><g
           transform="translate(268.3063,97.3214)"
           id="g638"><path
             id="path640"
             style="fill:#050606;fill-opacity:1;fill-rule:nonzero;stroke:none"
             d="m 0,0 c 0,0.023 0,0.038 -0.13,0.168 -0.765,0.773 -1.193,2.035 -1.193,3.596 0,1.484 0.359,2.761 1.246,3.664 C 0,7.497 0,7.512 0,7.535 c 0,0.046 -0.038,0.061 -0.069,0.061 -0.099,0 -0.727,-0.55 -1.101,-1.3 -0.391,-0.773 -0.567,-1.591 -0.567,-2.532 0,-0.681 0.108,-1.591 0.505,-2.41 0.452,-0.918 1.079,-1.415 1.163,-1.415 C -0.038,-0.061 0,-0.046 0,0" /></g><g
           transform="translate(273.5797,104.497)"
           id="g642"><path
             id="path644"
             style="fill:#050606;fill-opacity:1;fill-rule:nonzero;stroke:none"
             d="m 0,0 c 0,0.069 -0.054,0.069 -0.069,0.069 -0.03,0 -0.038,-0.008 -0.13,-0.123 -0.046,-0.053 -0.359,-0.451 -0.367,-0.459 -0.253,0.498 -0.757,0.582 -1.079,0.582 -0.971,0 -1.851,-0.888 -1.851,-1.752 0,-0.574 0.344,-0.91 0.719,-1.04 0.084,-0.031 0.536,-0.153 0.765,-0.207 0.39,-0.107 0.49,-0.138 0.65,-0.306 0.031,-0.038 0.184,-0.214 0.184,-0.574 0,-0.711 -0.658,-1.446 -1.423,-1.446 -0.627,0 -1.323,0.268 -1.323,1.125 0,0.145 0.03,0.329 0.053,0.405 0,0.023 0.008,0.062 0.008,0.077 0,0.031 -0.016,0.069 -0.077,0.069 -0.069,0 -0.076,-0.015 -0.107,-0.146 l -0.39,-1.568 c 0,-0.007 -0.031,-0.107 -0.031,-0.115 0,-0.068 0.062,-0.068 0.077,-0.068 0.031,0 0.038,0.007 0.13,0.122 l 0.352,0.459 c 0.183,-0.275 0.581,-0.581 1.293,-0.581 0.987,0 1.889,0.956 1.889,1.912 0,0.321 -0.076,0.604 -0.367,0.888 -0.161,0.16 -0.298,0.198 -1.002,0.382 -0.513,0.138 -0.581,0.161 -0.719,0.283 -0.13,0.13 -0.23,0.314 -0.23,0.574 0,0.642 0.651,1.3 1.377,1.3 0.75,0 1.102,-0.459 1.102,-1.185 0,-0.199 -0.038,-0.406 -0.038,-0.436 0,-0.069 0.061,-0.069 0.084,-0.069 0.069,0 0.076,0.023 0.107,0.145 z" /></g><g
           transform="translate(278.5091,100.9475)"
           id="g646"><path
             id="path648"
             style="fill:#050606;fill-opacity:1;fill-rule:nonzero;stroke:none"
             d="m 0,0 h 2.111 c 0.107,0 0.245,0 0.245,0.138 0,0.145 -0.13,0.145 -0.245,0.145 L 0,0.283 v 2.111 c 0,0.108 0,0.245 -0.138,0.245 -0.145,0 -0.145,-0.13 -0.145,-0.245 V 0.283 h -2.111 c -0.108,0 -0.245,0 -0.245,-0.138 C -2.639,0 -2.509,0 -2.394,0 h 2.111 v -2.111 c 0,-0.107 0,-0.245 0.138,-0.245 C 0,-2.356 0,-2.226 0,-2.111 Z" /></g><g
           transform="translate(285.8453,103.9386)"
           id="g650"><path
             id="path652"
             style="fill:#050606;fill-opacity:1;fill-rule:nonzero;stroke:none"
             d="M 0,0 2.088,-4.23 H -2.081 Z M 0.413,0.566 C 0.36,0.673 0.344,0.704 0.237,0.704 0.122,0.704 0.107,0.673 0.054,0.566 l -2.556,-5.171 c -0.015,-0.023 -0.03,-0.069 -0.03,-0.1 0,-0.046 0.008,-0.053 0.161,-0.053 h 5.209 c 0.153,0 0.161,0.007 0.161,0.053 0,0.031 -0.016,0.077 -0.031,0.1 z" /></g><g
           transform="translate(294.0374,104.497)"
           id="g654"><path
             id="path656"
             style="fill:#050606;fill-opacity:1;fill-rule:nonzero;stroke:none"
             d="m 0,0 c 0,0.069 -0.054,0.069 -0.069,0.069 -0.03,0 -0.038,-0.008 -0.13,-0.123 -0.046,-0.053 -0.359,-0.451 -0.367,-0.459 -0.253,0.498 -0.757,0.582 -1.079,0.582 -0.971,0 -1.851,-0.888 -1.851,-1.752 0,-0.574 0.344,-0.91 0.719,-1.04 0.084,-0.031 0.536,-0.153 0.765,-0.207 0.39,-0.107 0.49,-0.138 0.65,-0.306 0.031,-0.038 0.184,-0.214 0.184,-0.574 0,-0.711 -0.658,-1.446 -1.423,-1.446 -0.627,0 -1.323,0.268 -1.323,1.125 0,0.145 0.03,0.329 0.053,0.405 0,0.023 0.008,0.062 0.008,0.077 0,0.031 -0.016,0.069 -0.077,0.069 -0.069,0 -0.076,-0.015 -0.107,-0.146 l -0.39,-1.568 c 0,-0.007 -0.031,-0.107 -0.031,-0.115 0,-0.068 0.062,-0.068 0.077,-0.068 0.031,0 0.038,0.007 0.13,0.122 l 0.352,0.459 c 0.183,-0.275 0.581,-0.581 1.293,-0.581 0.987,0 1.889,0.956 1.889,1.912 0,0.321 -0.076,0.604 -0.367,0.888 -0.161,0.16 -0.298,0.198 -1.002,0.382 -0.513,0.138 -0.581,0.161 -0.719,0.283 -0.13,0.13 -0.23,0.314 -0.23,0.574 0,0.642 0.651,1.3 1.377,1.3 0.75,0 1.102,-0.459 1.102,-1.185 0,-0.199 -0.038,-0.406 -0.038,-0.436 0,-0.069 0.061,-0.069 0.084,-0.069 0.069,0 0.076,0.023 0.107,0.145 z" /></g><g
           transform="translate(296.3723,101.0852)"
           id="g658"><path
             id="path660"
             style="fill:#050606;fill-opacity:1;fill-rule:nonzero;stroke:none"
             d="m 0,0 c 0,0.581 -0.076,1.53 -0.505,2.417 -0.451,0.918 -1.079,1.416 -1.163,1.416 -0.03,0 -0.069,-0.016 -0.069,-0.062 0,-0.023 0,-0.038 0.131,-0.168 0.765,-0.773 1.193,-2.035 1.193,-3.595 0,-1.484 -0.36,-2.762 -1.247,-3.665 -0.077,-0.069 -0.077,-0.084 -0.077,-0.107 0,-0.046 0.039,-0.061 0.069,-0.061 0.1,0 0.727,0.551 1.102,1.301 C -0.176,-1.744 0,-0.918 0,0" /></g><g
           transform="translate(225.0444,99.5269)"
           id="g662"><path
             id="path664"
             style="fill:#050606;fill-opacity:1;fill-rule:nonzero;stroke:none"
             d="m 0,0 h 0.523 c 0.101,0 0.165,0 0.165,0.101 0,0.075 -0.069,0.075 -0.16,0.075 H 0.043 l 0.192,0.757 c 0.021,0.08 0.021,0.107 0.021,0.112 0,0.112 -0.085,0.165 -0.176,0.165 -0.181,0 -0.219,-0.144 -0.277,-0.384 l -0.166,-0.65 h -0.511 c -0.102,0 -0.171,0 -0.171,-0.101 C -1.045,0 -0.976,0 -0.885,0 h 0.48 l -0.32,-1.28 c -0.032,-0.133 -0.08,-0.32 -0.08,-0.394 0,-0.32 0.261,-0.502 0.544,-0.502 0.57,0 0.896,0.752 0.896,0.816 0,0.059 -0.048,0.07 -0.08,0.07 -0.059,0 -0.064,-0.022 -0.102,-0.102 -0.106,-0.256 -0.373,-0.634 -0.698,-0.634 -0.112,0 -0.176,0.074 -0.176,0.25 0,0.102 0.016,0.16 0.032,0.23 z" /></g><g
           transform="translate(273.7583,99.5269)"
           id="g666"><path
             id="path668"
             style="fill:#050606;fill-opacity:1;fill-rule:nonzero;stroke:none"
             d="m 0,0 h 0.523 c 0.101,0 0.165,0 0.165,0.101 0,0.075 -0.069,0.075 -0.16,0.075 H 0.043 l 0.192,0.757 c 0.021,0.08 0.021,0.107 0.021,0.112 0,0.112 -0.085,0.165 -0.176,0.165 -0.181,0 -0.219,-0.144 -0.277,-0.384 l -0.166,-0.65 h -0.511 c -0.102,0 -0.171,0 -0.171,-0.101 C -1.045,0 -0.976,0 -0.885,0 h 0.48 l -0.32,-1.28 c -0.032,-0.133 -0.08,-0.32 -0.08,-0.394 0,-0.32 0.261,-0.502 0.544,-0.502 0.57,0 0.896,0.752 0.896,0.816 0,0.059 -0.048,0.07 -0.08,0.07 -0.059,0 -0.064,-0.022 -0.102,-0.102 -0.106,-0.256 -0.373,-0.634 -0.698,-0.634 -0.112,0 -0.176,0.074 -0.176,0.25 0,0.102 0.016,0.16 0.032,0.23 z" /></g><g
           transform="translate(509.0867,111.4002)"
           id="g670"><path
             id="path672"
             style="fill:#ffffff;fill-opacity:1;fill-rule:nonzero;stroke:none"
             d="M 0,0 H -45.119" /></g><g
           transform="translate(502.0262,111.4002)"
           id="g674"><path
             id="path676"
             style="fill:none;stroke:#231f20;stroke-width:1;stroke-linecap:butt;stroke-linejoin:miter;stroke-miterlimit:10;stroke-dasharray:none;stroke-opacity:1"
             d="M 0,0 H -38.059" /></g><g
           transform="translate(509.0867,111.4002)"
           id="g678"><path
             id="path680"
             style="fill:#231f20;fill-opacity:1;fill-rule:nonzero;stroke:none"
             d="M 0,0 -9.949,4.065 -7.588,0 -9.949,-4.064 Z" /></g></g></g></g></svg>